<?xml version="1.0" encoding="utf-8"?>
<svg version="1.1" xmlns:xlink="http://www.w3.org/1999/xlink" width="1510px" height="310px" xmlns="http://www.w3.org/2000/svg">
  <defs>
    <filter x="35px" y="2388px" width="1510px" height="310px" filterUnits="userSpaceOnUse" id="filter259">
      <feOffset dx="0" dy="0" in="SourceAlpha" result="shadowOffsetInner" />
      <feGaussianBlur stdDeviation="2.5" in="shadowOffsetInner" result="shadowGaussian" />
      <feComposite in2="shadowGaussian" operator="atop" in="SourceAlpha" result="shadowComposite" />
      <feColorMatrix type="matrix" values="0 0 0 0 0  0 0 0 0 0  0 0 0 0 0  0 0 0 0.0470588235294118 0  " in="shadowComposite" />
    </filter>
    <g id="widget260">
      <path d="M 40.5 2403  A 9.5 9.5 0 0 1 50 2393.5 L 1530 2393.5  A 9.5 9.5 0 0 1 1539.5 2403 L 1539.5 2683  A 9.5 9.5 0 0 1 1530 2692.5 L 50 2692.5  A 9.5 9.5 0 0 1 40.5 2683 L 40.5 2403  Z " fill-rule="nonzero" fill="#ffffff" stroke="none" fill-opacity="0.996078431372549" />
      <path d="M 40.5 2403  A 9.5 9.5 0 0 1 50 2393.5 L 1530 2393.5  A 9.5 9.5 0 0 1 1539.5 2403 L 1539.5 2683  A 9.5 9.5 0 0 1 1530 2692.5 L 50 2692.5  A 9.5 9.5 0 0 1 40.5 2683 L 40.5 2403  Z " stroke-width="1" stroke="#e9e9e9" fill="none" />
    </g>
  </defs>
  <g transform="matrix(1 0 0 1 -35 -2388 )">
    <use xlink:href="#widget260" filter="url(#filter259)" />
    <use xlink:href="#widget260" />
  </g>
</svg>