<?xml version="1.0" encoding="utf-8"?>
<svg version="1.1" xmlns:xlink="http://www.w3.org/1999/xlink" width="117px" height="117px" xmlns="http://www.w3.org/2000/svg">
  <g transform="matrix(1 0 0 1 -219 -1248 )">
    <path d="M 277.5 1248  C 310.26 1248  336 1273.74  336 1306.5  C 336 1339.26  310.26 1365  277.5 1365  C 244.74 1365  219 1339.26  219 1306.5  C 219 1273.74  244.74 1248  277.5 1248  Z " fill-rule="nonzero" fill="#ffffff" stroke="none" />
    <path d="M 277.5 1248.5  C 309.98 1248.5  335.5 1274.02  335.5 1306.5  C 335.5 1338.98  309.98 1364.5  277.5 1364.5  C 245.02 1364.5  219.5 1338.98  219.5 1306.5  C 219.5 1274.02  245.02 1248.5  277.5 1248.5  Z " stroke-width="1" stroke="#ffffff" fill="none" />
  </g>
</svg>