<?xml version="1.0" encoding="utf-8"?>
<svg version="1.1" xmlns:xlink="http://www.w3.org/1999/xlink" width="1550px" height="1009px" xmlns="http://www.w3.org/2000/svg">
  <defs>
    <mask fill="white" id="clip406">
      <path d="M 0 999  L 0 0  L 1540 0  L 1540 629.647427526769  L 1540 999  L 0 999  Z " fill-rule="evenodd" />
    </mask>
    <filter x="15px" y="65px" width="1550px" height="1009px" filterUnits="userSpaceOnUse" id="filter407">
      <feOffset dx="0" dy="0" in="SourceAlpha" result="shadowOffsetInner" />
      <feGaussianBlur stdDeviation="2.5" in="shadowOffsetInner" result="shadowGaussian" />
      <feComposite in2="shadowGaussian" operator="atop" in="SourceAlpha" result="shadowComposite" />
      <feColorMatrix type="matrix" values="0 0 0 0 0  0 0 0 0 0  0 0 0 0 0  0 0 0 0.0470588235294118 0  " in="shadowComposite" />
    </filter>
    <g id="widget408">
      <path d="M 0 999  L 0 0  L 1540 0  L 1540 629.647427526769  L 1540 999  L 0 999  Z " fill-rule="nonzero" fill="#ffffff" stroke="none" transform="matrix(1 0 0 1 20 70 )" />
      <path d="M 0 999  L 0 0  L 1540 0  L 1540 629.647427526769  L 1540 999  L 0 999  Z " stroke-width="2" stroke="#e9e9e9" fill="none" transform="matrix(1 0 0 1 20 70 )" mask="url(#clip406)" />
    </g>
  </defs>
  <g transform="matrix(1 0 0 1 -15 -65 )">
    <use xlink:href="#widget408" filter="url(#filter407)" />
    <use xlink:href="#widget408" />
  </g>
</svg>