<?xml version="1.0" encoding="utf-8"?>
<svg version="1.1" xmlns:xlink="http://www.w3.org/1999/xlink" width="32px" height="10px" preserveAspectRatio="xMinYMid meet" viewBox="273 111  32 8" xmlns="http://www.w3.org/2000/svg">
  <path d="M 274 115.5  L 295 115.5  A 5 5 0 0 0 300.5 110.5 L 300.5 104  A 5 5 0 0 0 295.5 99.5 L 290 99.5  " stroke-width="1" stroke="#0099ff" fill="none" />
  <path d="M 276 112.5  A 3 3 0 0 0 273 115.5 A 3 3 0 0 0 276 118.5 A 3 3 0 0 0 279 115.5 A 3 3 0 0 0 276 112.5 Z M 291 105  L 291 94  L 290 94  L 290 105  L 291 105  Z " fill-rule="nonzero" fill="#0099ff" stroke="none" />
</svg>