<?xml version="1.0" encoding="utf-8"?>
<svg version="1.1" xmlns:xlink="http://www.w3.org/1999/xlink" width="15px" height="10px" preserveAspectRatio="xMinYMid meet" viewBox="225 316  15 8" xmlns="http://www.w3.org/2000/svg">
  <path d="M 235.5 364  L 235.5 322.5  A 2.5 2.5 0 0 0 233 320.5 A 2.5 2.5 0 0 1 230.5 318 L 230.5 307  A 5 5 0 0 1 235.5 302.5 L 242 302.5  " stroke-width="1" stroke="#0099ff" fill="none" />
  <path d="M 235.5 359  A 3 3 0 0 0 232.5 362 A 3 3 0 0 0 235.5 365 A 3 3 0 0 0 238.5 362 A 3 3 0 0 0 235.5 359 Z M 241 297  L 241 308  L 242 308  L 242 297  L 241 297  Z " fill-rule="nonzero" fill="#0099ff" stroke="none" />
</svg>