<?xml version="1.0" encoding="utf-8"?>
<svg version="1.1" xmlns:xlink="http://www.w3.org/1999/xlink" width="18px" height="18px" preserveAspectRatio="xMinYMid meet" viewBox="253 659  18 16" xmlns="http://www.w3.org/2000/svg">
  <path d="M 264 667.5  L 145 667.5  A 5 5 0 0 1 140.5 662.5 L 140.5 556  A 5 5 0 0 1 145.5 551.5 L 159 551.5  " stroke-width="1" stroke="#0099ff" fill="none" />
  <path d="M 262 664.5  A 3 3 0 0 0 259 667.5 A 3 3 0 0 0 262 670.5 A 3 3 0 0 0 265 667.5 A 3 3 0 0 0 262 664.5 Z M 158 546  L 158 557  L 159 557  L 159 546  L 158 546  Z " fill-rule="nonzero" fill="#0099ff" stroke="none" />
</svg>