<?xml version="1.0" encoding="utf-8"?>
<svg version="1.1" xmlns:xlink="http://www.w3.org/1999/xlink" width="18px" height="18px" preserveAspectRatio="xMinYMid meet" viewBox="259 129  18 16" xmlns="http://www.w3.org/2000/svg">
  <path d="M 268.5 135  L 268.5 141  A 3 3 0 0 1 271.5 144 A 3 3 0 0 1 268.5 147 L 268.5 648  A 5 5 0 0 0 273.5 653.5 L 504 653.5  " stroke-width="1" stroke="#0099ff" fill="none" />
  <path d="M 268.5 134  A 3 3 0 0 0 265.5 137 A 3 3 0 0 0 268.5 140 A 3 3 0 0 0 271.5 137 A 3 3 0 0 0 268.5 134 Z M 503 648  L 503 659  L 504 659  L 504 648  L 503 648  Z " fill-rule="nonzero" fill="#0099ff" stroke="none" />
</svg>