<?xml version="1.0" encoding="utf-8"?>
<svg version="1.1" xmlns:xlink="http://www.w3.org/1999/xlink" width="10px" height="5px" preserveAspectRatio="xMinYMid meet" viewBox="482 1662  10 3" xmlns="http://www.w3.org/2000/svg">
  <path d="M 390.5 134  L 390.5 141  A 3 3 0 0 1 393.5 144 A 3 3 0 0 1 390.5 147 L 390.5 650  A 3 3 0 0 1 393.5 653 A 3 3 0 0 1 390.5 656 L 390.5 1656  A 5 5 0 0 0 395.5 1661.5 L 487 1661.5  " stroke-width="1" stroke="#0099ff" fill="none" />
  <path d="M 390.5 133  A 3 3 0 0 0 387.5 136 A 3 3 0 0 0 390.5 139 A 3 3 0 0 0 393.5 136 A 3 3 0 0 0 390.5 133 Z M 486 1656  L 486 1667  L 487 1667  L 487 1656  L 486 1656  Z " fill-rule="nonzero" fill="#0099ff" stroke="none" />
</svg>