<?xml version="1.0" encoding="utf-8"?>
<svg version="1.1" xmlns:xlink="http://www.w3.org/1999/xlink" width="18px" height="18px" preserveAspectRatio="xMinYMid meet" viewBox="144 327  18 16" xmlns="http://www.w3.org/2000/svg">
  <path d="M 151 335.5  L 175 335.5  A 5 5 0 0 0 180.5 330.5 L 180.5 274  A 5 5 0 0 1 185.5 269.5 L 197 269.5  " stroke-width="1" stroke="#0099ff" fill="none" />
  <path d="M 153 332.5  A 3 3 0 0 0 150 335.5 A 3 3 0 0 0 153 338.5 A 3 3 0 0 0 156 335.5 A 3 3 0 0 0 153 332.5 Z M 196 264  L 196 275  L 197 275  L 197 264  L 196 264  Z " fill-rule="nonzero" fill="#0099ff" stroke="none" />
</svg>