<?xml version="1.0" encoding="utf-8"?>
<svg version="1.1" xmlns:xlink="http://www.w3.org/1999/xlink" width="10px" height="10px" xmlns="http://www.w3.org/2000/svg">
  <g transform="matrix(1 0 0 1 -11 -21 )">
    <path d="M 16 22  C 18.24 22  20 23.76  20 26  C 20 28.24  18.24 30  16 30  C 13.76 30  12 28.24  12 26  C 12 23.76  13.76 22  16 22  Z " fill-rule="nonzero" fill="#f9f9f9" stroke="none" />
    <path d="M 16 22  C 18.24 22  20 23.76  20 26  C 20 28.24  18.24 30  16 30  C 13.76 30  12 28.24  12 26  C 12 23.76  13.76 22  16 22  Z " stroke-width="2" stroke="#409eff" fill="none" />
  </g>
</svg>