<?xml version="1.0" encoding="utf-8"?>
<svg version="1.1" xmlns:xlink="http://www.w3.org/1999/xlink" width="10px" height="10px" xmlns="http://www.w3.org/2000/svg">
  <g transform="matrix(1 0 0 1 -14 -23 )">
    <path d="M 19 24  C 21.24 24  23 25.76  23 28  C 23 30.24  21.24 32  19 32  C 16.76 32  15 30.24  15 28  C 15 25.76  16.76 24  19 24  Z " fill-rule="nonzero" fill="#f9f9f9" stroke="none" />
    <path d="M 19 24  C 21.24 24  23 25.76  23 28  C 23 30.24  21.24 32  19 32  C 16.76 32  15 30.24  15 28  C 15 25.76  16.76 24  19 24  Z " stroke-width="2" stroke="#409eff" fill="none" />
  </g>
</svg>