<?xml version="1.0" encoding="utf-8"?>
<svg version="1.1" xmlns:xlink="http://www.w3.org/1999/xlink" width="375px" height="86px" xmlns="http://www.w3.org/2000/svg">
  <defs>
    <filter x="32px" y="490px" width="375px" height="86px" filterUnits="userSpaceOnUse" id="filter76">
      <feOffset dx="0" dy="0" in="SourceAlpha" result="shadowOffsetInner" />
      <feGaussianBlur stdDeviation="2.5" in="shadowOffsetInner" result="shadowGaussian" />
      <feComposite in2="shadowGaussian" operator="atop" in="SourceAlpha" result="shadowComposite" />
      <feColorMatrix type="matrix" values="0 0 0 0 0  0 0 0 0 0  0 0 0 0 0  0 0 0 0.0470588235294118 0  " in="shadowComposite" />
    </filter>
    <g id="widget77">
      <path d="M 37.5 505  A 9.5 9.5 0 0 1 47 495.5 L 392 495.5  A 9.5 9.5 0 0 1 401.5 505 L 401.5 561  A 9.5 9.5 0 0 1 392 570.5 L 47 570.5  A 9.5 9.5 0 0 1 37.5 561 L 37.5 505  Z " fill-rule="nonzero" fill="#ffffff" stroke="none" fill-opacity="0" />
      <path d="M 37.5 505  A 9.5 9.5 0 0 1 47 495.5 L 392 495.5  A 9.5 9.5 0 0 1 401.5 505 L 401.5 561  A 9.5 9.5 0 0 1 392 570.5 L 47 570.5  A 9.5 9.5 0 0 1 37.5 561 L 37.5 505  Z " stroke-width="1" stroke="#e9e9e9" fill="none" />
    </g>
  </defs>
  <g transform="matrix(1 0 0 1 -32 -490 )">
    <use xlink:href="#widget77" filter="url(#filter76)" />
    <use xlink:href="#widget77" />
  </g>
</svg>