<?xml version="1.0" encoding="utf-8"?>
<svg version="1.1" xmlns:xlink="http://www.w3.org/1999/xlink" width="239px" height="277px" xmlns="http://www.w3.org/2000/svg">
  <g transform="matrix(1 0 0 1 -1118 -233 )">
    <path d="M 236 70.5321224458145  L 118.934140648568 2.72004311648331  L 2 70.5321224458145  L 2 206.156559290379  L 118.934140648568 273.968638619711  L 236 206.156559290379  L 236 70.5321224458145  Z M 118.17249551492 1.40542926839451  C 118.408074988796 1.26902544737884  118.671107818682 1.20077717255392  118.934140648568 1.20077717255392  C 119.197173478454 1.20077717255392  119.460391803989 1.26902544737884  119.695785782215 1.40542926839451  L 236.776001863535 69.2175085977258  C 237.245120359149 69.4892034961456  237.533937084208 69.9901235784886  237 70.5321224458145  L 237 206.156559290379  C 237.533937084208 206.698558157705  237.245120359149 207.199478240048  236.776001863535 207.471173138468  L 119.695785782215 275.283252467799  C 119.460391803989 275.419656288815  119.197173478454 275.48790456364  118.934140648568 275.48790456364  C 118.671107818682 275.48790456364  118.408074988796 275.419656288815  118.17249551492 275.283252467799  L 1.09265042489931 207.471173138468  C 0.623531929283744 207.199478240048  0.334715204226403 206.698558157705  1 206.156559290379  L 1 70.5321224458145  C 0.334715204226403 69.9901235784886  0.623531929283744 69.4892034961456  1.09265042489931 69.2175085977258  L 118.17249551492 1.40542926839451  Z " fill-rule="nonzero" fill="#389aff" stroke="none" transform="matrix(1 0 0 1 1118 233 )" />
  </g>
</svg>