<?xml version="1.0" encoding="utf-8"?>
<svg version="1.1" xmlns:xlink="http://www.w3.org/1999/xlink" width="1042px" height="1313px" xmlns="http://www.w3.org/2000/svg">
  <defs>
    <filter x="506px" y="1163px" width="1042px" height="1313px" filterUnits="userSpaceOnUse" id="filter88">
      <feOffset dx="0" dy="0" in="SourceAlpha" result="shadowOffsetInner" />
      <feGaussianBlur stdDeviation="2.5" in="shadowOffsetInner" result="shadowGaussian" />
      <feComposite in2="shadowGaussian" operator="atop" in="SourceAlpha" result="shadowComposite" />
      <feColorMatrix type="matrix" values="0 0 0 0 0  0 0 0 0 0  0 0 0 0 0  0 0 0 0.0470588235294118 0  " in="shadowComposite" />
    </filter>
    <g id="widget89">
      <path d="M 511.5 1178  A 9.5 9.5 0 0 1 521 1168.5 L 1533 1168.5  A 9.5 9.5 0 0 1 1542.5 1178 L 1542.5 2461  A 9.5 9.5 0 0 1 1533 2470.5 L 521 2470.5  A 9.5 9.5 0 0 1 511.5 2461 L 511.5 1178  Z " fill-rule="nonzero" fill="#ffffff" stroke="none" fill-opacity="0.996078431372549" />
      <path d="M 511.5 1178  A 9.5 9.5 0 0 1 521 1168.5 L 1533 1168.5  A 9.5 9.5 0 0 1 1542.5 1178 L 1542.5 2461  A 9.5 9.5 0 0 1 1533 2470.5 L 521 2470.5  A 9.5 9.5 0 0 1 511.5 2461 L 511.5 1178  Z " stroke-width="1" stroke="#e9e9e9" fill="none" />
    </g>
  </defs>
  <g transform="matrix(1 0 0 1 -506 -1163 )">
    <use xlink:href="#widget89" filter="url(#filter88)" />
    <use xlink:href="#widget89" />
  </g>
</svg>