<?xml version="1.0" encoding="utf-8"?>
<svg version="1.1" xmlns:xlink="http://www.w3.org/1999/xlink" width="1042px" height="651px" xmlns="http://www.w3.org/2000/svg">
  <defs>
    <filter x="506px" y="2509px" width="1042px" height="651px" filterUnits="userSpaceOnUse" id="filter436">
      <feOffset dx="0" dy="0" in="SourceAlpha" result="shadowOffsetInner" />
      <feGaussianBlur stdDeviation="2.5" in="shadowOffsetInner" result="shadowGaussian" />
      <feComposite in2="shadowGaussian" operator="atop" in="SourceAlpha" result="shadowComposite" />
      <feColorMatrix type="matrix" values="0 0 0 0 0  0 0 0 0 0  0 0 0 0 0  0 0 0 0.0470588235294118 0  " in="shadowComposite" />
    </filter>
    <g id="widget437">
      <path d="M 511.5 2524  A 9.5 9.5 0 0 1 521 2514.5 L 1533 2514.5  A 9.5 9.5 0 0 1 1542.5 2524 L 1542.5 3145  A 9.5 9.5 0 0 1 1533 3154.5 L 521 3154.5  A 9.5 9.5 0 0 1 511.5 3145 L 511.5 2524  Z " fill-rule="nonzero" fill="#ffffff" stroke="none" fill-opacity="0.996078431372549" />
      <path d="M 511.5 2524  A 9.5 9.5 0 0 1 521 2514.5 L 1533 2514.5  A 9.5 9.5 0 0 1 1542.5 2524 L 1542.5 3145  A 9.5 9.5 0 0 1 1533 3154.5 L 521 3154.5  A 9.5 9.5 0 0 1 511.5 3145 L 511.5 2524  Z " stroke-width="1" stroke="#e9e9e9" fill="none" />
    </g>
  </defs>
  <g transform="matrix(1 0 0 1 -506 -2509 )">
    <use xlink:href="#widget437" filter="url(#filter436)" />
    <use xlink:href="#widget437" />
  </g>
</svg>