<?xml version="1.0" encoding="utf-8"?>
<svg version="1.1" xmlns:xlink="http://www.w3.org/1999/xlink" width="133px" height="133px" xmlns="http://www.w3.org/2000/svg">
  <g transform="matrix(1 0 0 1 -677 -2603 )">
    <path d="M 31.2160172413793 117.331224137931  C 32.061025862069 117.919405172414  32.9220862068966 118.488094827586  33.7980517241379 119.033853448276  L 31.246974137931 122.912637931035  L 28.6637931034483 121.212301724138  L 31.2160172413793 117.331224137931  Z M 36.5107931034483 120.634439655172  C 37.4119827586207 121.134336206897  38.3246379310345 121.612448275862  39.2521982758621 122.067629310345  L 37.107 126.178017241379  L 34.3655948275862 124.747120689655  L 36.5107931034483 120.634439655172  Z M 21.6755603448276 109.147137931034  C 22.3864224137931 109.894689655172  23.1156293103448 110.62275  23.8631810344828 111.33475862069  L 20.5771637931035 114.621922413793  L 18.3895431034483 112.433155172414  L 21.6755603448276 109.147137931034  Z M 26.1987068965517 113.445560344828  C 26.9818017241379 114.117439655172  27.7798017241379 114.770974137931  28.595 115.402724137931  L 25.6563879310345 119.004043103448  L 23.2600948275862 117.048025862069  L 26.1987068965517 113.445560344828  Z M 53.5611637931034 127.016146551724  C 54.5655431034483 127.229405172414  55.5790948275862 127.418586206897  56.6018189655173 127.582543103448  L 55.7430517241379 132.153844827586  L 52.7035431034483 131.581715517241  L 53.5611637931034 127.016146551724  Z M 59.7215862068965 128.003327586207  C 60.7420172413793 128.113396551724  61.7693275862069 128.199387931034  62.8035172413793 128.260155172414  L 62.4091034482759 132.904836206897  L 59.3271724137931 132.642275862069  L 59.7215862068965 128.003327586207  Z M 41.6003362068965 123.154560344828  C 42.5428017241379 123.568465517241  43.4955862068966 123.960586206897  44.4621293103448 124.328629310345  L 42.701025862069 128.623612068965  L 39.8392327586207 127.449543103448  L 41.6003362068965 123.154560344828  Z M 47.4328448275862 125.375431034483  C 48.4108534482759 125.691879310345  49.3991810344828 125.98425  50.3978275862069 126.252543103448  L 49.0781465517242 130.70575  L 46.1131637931034 129.826344827586  L 47.4328448275862 125.375431034483  Z M 5.59746551724137 77.4782327586207  C 5.78091379310345 78.4975172413793  5.98729310344828 79.5076293103448  6.22004310344828 80.5097155172414  L 1.69001724137931 81.4441551724138  L 1.06514655172414 78.4138189655173  L 5.59746551724137 77.4782327586207  Z M 7.00887068965517 83.5606896551724  C 7.29321551724138 84.5558965517241  7.60163793103449 85.5396379310345  7.93528448275862 86.5130603448276  L 3.52564655172414 87.8992413793103  L 2.59923275862069 84.9468706896552  L 7.00887068965517 83.5606896551724  Z M 4.64582758620689 64.9544482758621  C 4.63321551724138 65.46925  4.6068448275862 65.9817586206897  4.6068448275862 66.5  C 4.6068448275862 67.0182413793103  4.63321551724138 67.53075  4.64582758620689 68.0455517241379  L 0 68.0455517241379  L 0 64.9544482758621  L 4.64582758620689 64.9544482758621  Z M 4.80175862068965 71.1802241379311  C 4.8785775862069 72.2144137931034  4.98062068965517 73.2405775862069  5.10903448275863 74.2598620689655  L 0.499896551724135 74.7265086206896  L 0.188034482758624 71.6480172413793  L 4.80175862068965 71.1802241379311  Z M 14.5589137931034 100.136387931035  C 15.1218706896552 101.002034482759  15.7031724137931 101.853922413793  16.3074051724138 102.688612068966  L 12.4802155172414 105.306189655172  L 10.7340172413793 102.751672413793  L 14.5589137931034 100.136387931035  Z M 18.2152672413793 105.196120689655  C 18.860775862069 106.001  19.525775862069 106.789827586207  20.2102672413793 107.560310344828  L 16.6628362068966 110.552810344828  L 14.6689827586207 108.186327586207  L 18.2152672413793 105.196120689655  Z M 8.82271551724138 88.9460431034482  C 9.19878448275863 89.9091465517241  9.59663793103448 90.8607844827586  10.0185689655172 91.7998103448276  L 5.75339655172414 93.5849913793104  L 4.55983620689655 90.7300775862069  L 8.82271551724138 88.9460431034482  Z M 11.3818189655172 94.6409655172414  C 11.8530517241379 95.5605  12.3449224137931 96.4674224137931  12.859724137931 97.3594396551724  L 8.79061206896552 99.5676982758621  L 7.315 96.848077586207  L 11.3818189655172 94.6409655172414  Z M 117.310586206897 101.777103448276  C 117.898767241379 100.930948275862  118.467456896552 100.071034482759  119.014362068966 99.1939224137931  L 122.91149137931 101.759905172414  L 121.211155172414 104.344232758621  L 117.310586206897 101.777103448276  Z M 120.612655172414 96.483474137931  C 121.112551724138 95.5822844827586  121.591810344828 94.6696293103448  122.048137931034 93.7420689655172  L 126.175724137931 95.8975862068966  L 124.744827586207 98.6401379310345  L 120.612655172414 96.483474137931  Z M 109.128793103448 111.312974137931  C 109.875198275862 110.600965517241  110.604405172414 109.87175862069  111.315267241379 109.124206896552  L 114.623068965517 112.433155172414  L 112.436594827586 114.621922413793  L 109.128793103448 111.312974137931  Z M 113.426068965517 106.790974137931  C 114.097948275862 106.009025862069  114.750336206897 105.211025862069  115.383232758621 104.395827586207  L 119.004043103448 107.351637931034  L 117.049172413793 109.749077586207  L 113.426068965517 106.790974137931  Z M 126.997801724138 79.43425  C 127.212206896552 78.428724137931  127.401387931034 77.4151724137931  127.565344827586 76.3924482758621  L 132.148112068966 77.2546551724138  L 131.577129310345 80.2953103448276  L 126.997801724138 79.43425  Z M 127.986129310345 73.2726810344827  C 128.097344827586 72.25225  128.182189655172 71.2237931034483  128.242956896552 70.1896034482759  L 132.899103448276 70.5863103448276  L 132.636543103448 73.6693879310345  L 127.986129310345 73.2726810344827  Z M 123.133922413793 91.3950775862069  C 123.548974137931 90.4526120689656  123.941094827586 89.4986810344827  124.309137931034 88.5321379310344  L 128.619025862069 90.3012672413793  L 127.446103448276 93.1642068965517  L 123.133922413793 91.3950775862069  Z M 125.355939655172 85.5637155172413  C 125.672387931035 84.5845603448275  125.965905172414 83.5962327586207  126.234198275862 82.5964396551724  L 130.701163793103 83.9218534482759  L 129.82175862069 86.8879827586206  L 125.355939655172 85.5637155172413  Z M 77.4874051724138 127.383043103448  C 78.5055431034483 127.199594827586  79.5156551724138 126.992068965517  80.5165948275862 126.760465517241  L 81.4590603448276 131.328327586207  L 78.4298706896552 131.953198275862  L 77.4874051724138 127.383043103448  Z M 83.5629827586207 125.971637931034  C 84.5581896551724 125.686146551724  85.5407844827586 125.377724137931  86.5142068965517 125.045224137931  L 87.9107068965517 129.491551724138  L 84.9594827586207 130.419112068966  L 83.5629827586207 125.971637931034  Z M 64.9590344827586 128.339267241379  C 65.4681034482759 128.351879310345  65.9725862068966 128.37825  66.4850948275862 128.37825  C 67.0067758620689 128.37825  67.5215775862069 128.351879310345  68.0409655172414 128.338120689655  L 68.0409655172414 133  L 64.9590344827586 133  L 64.9590344827586 128.339267241379  Z M 71.1951293103448 128.181043103448  C 72.2281724137931 128.103077586207  73.2543362068965 128.001034482759  74.272474137931 127.872620689655  L 74.7425603448276 132.518448275862  L 71.6652155172414 132.830310344828  L 71.1951293103448 128.181043103448  Z M 100.122629310345 118.423887931035  C 100.989422413793 117.862077586207  101.840163793103 117.279629310345  102.674853448276 116.676543103448  L 105.311922413793 120.534689655172  L 102.758551724138 122.280887931034  L 100.122629310345 118.423887931035  Z M 105.178922413793 114.770974137931  C 105.983801724138 114.125465517241  106.772629310345 113.460465517241  107.54425862069 112.775974137931  L 110.555103448276 116.349775862069  L 108.190913793103 118.343629310345  L 105.178922413793 114.770974137931  Z M 88.9426034482759 124.156646551724  C 89.9057068965517 123.781724137931  90.8561982758621 123.382724137931  91.795224137931 122.960793103448  L 93.5941637931035 127.263801724138  L 90.7403965517241 128.457362068965  L 88.9426034482759 124.156646551724  Z M 94.6329396551724 121.599836206896  C 95.552474137931 121.128603448276  96.45825 120.635586206897  97.3502672413793 120.120784482759  L 99.575724137931 124.225439655172  L 96.8561034482759 125.701051724138  L 94.6329396551724 121.599836206896  Z M 101.771370689655 15.6813879310345  C 100.926362068966 15.0920603448276  100.065301724138 14.5245172413793  99.1893362068965 13.9776120689655  L 101.765637931034 10.0598448275862  L 104.349965517241 11.7613275862069  L 101.771370689655 15.6813879310345  Z M 96.4811810344827 12.3793189655173  C 95.5811379310345 11.8794224137931  94.6684827586207 11.4001637931034  93.7409224137931 10.9438362068965  L 95.9056120689655 6.79446551724141  L 98.6481637931034 8.22650862068963  L 96.4811810344827 12.3793189655173  Z M 111.302655172414 23.8620344827586  C 110.591793103448 23.1144827586207  109.862586206897 22.385275862069  109.115034482759 21.6744137931034  L 112.436594827586 18.3517068965517  L 114.623068965517 20.5393275862069  L 111.302655172414 23.8620344827586  Z M 106.782948275862 19.5647586206896  C 106.001 18.8928793103448  105.203 18.2404913793104  104.387801724138 17.6075948275862  L 107.356224137931 13.9684396551724  L 109.752517241379 15.9256034482759  L 106.782948275862 19.5647586206896  Z M 79.4457155172414 5.99187931034481  C 78.4413362068966 5.77862068965516  77.4277844827586 5.58829310344828  76.4050603448276 5.42433620689656  L 77.2707068965517 0.819784482758621  L 80.3102155172414 1.39076724137931  L 79.4457155172414 5.99187931034481  Z M 73.2887327586207 5.00240517241377  C 72.2683017241379 4.89004310344825  71.2409913793103 4.8051982758621  70.2068017241379 4.74328448275861  L 70.6046551724138 0.0687931034482858  L 73.6865862068966 0.331353448275877  L 73.2887327586207 5.00240517241377  Z M 91.396224137931 9.85805172413791  C 90.4549051724138 9.44299999999998  89.5009741379311 9.05087931034484  88.5355775862069 8.68283620689658  L 90.3115862068966 4.35001724137931  L 93.1733793103448 5.52408620689653  L 91.396224137931 9.85805172413791  Z M 85.5694482758621 7.63603448275859  C 84.5914396551724 7.31843965517243  83.6031120689655 7.02492241379309  82.6044655172414 6.75662931034481  L 83.9356120689655 2.26787931034482  L 86.9005948275862 3.14728448275861  L 85.5694482758621 7.63603448275859  Z M 127.368137931034 55.5045689655173  C 127.185836206897 54.4852844827586  126.978310344828 53.4751724137931  126.745560344828 52.4730862068966  L 131.322594827586 51.5283275862068  L 131.947465517241 54.5598103448276  L 127.368137931034 55.5045689655173  Z M 125.956732758621 49.426698275862  C 125.672387931035 48.4326379310345  125.363965517241 47.44775  125.030318965517 46.4743275862069  L 129.486965517241 45.0743879310345  L 130.414525862069 48.0267586206896  L 125.956732758621 49.426698275862  Z M 133 68.0455517241379  L 128.323215517241 68.0455517241379  C 128.335827586207 67.53075  128.362198275862 67.0182413793103  128.362198275862 66.5  C 128.362198275862 65.9817586206897  128.335827586207 65.46925  128.323215517241 64.9544482758621  L 133 64.9544482758621  L 133 68.0455517241379  Z M 128.166137931034 61.7968448275863  C 128.088172413793 60.7638017241379  127.986129310345 59.7376379310344  127.857715517241 58.7183534482758  L 132.513862068965 58.2471206896552  L 132.824577586207 61.3256120689655  L 128.166137931034 61.7968448275863  Z M 118.411275862069 32.8659051724138  C 117.849465517241 32.0002586206897  117.267017241379 31.1483706896552  116.663931034483 30.3136810344828  L 120.533543103448 27.6662931034483  L 122.278594827586 30.2208103448276  L 118.411275862069 32.8659051724138  Z M 114.75950862069 27.8107586206896  C 114.112853448276 27.0058793103449  113.449 26.2170517241379  112.76450862069 25.4454224137932  L 116.350922413793 22.4208189655172  L 118.344775862069 24.7861551724138  L 114.75950862069 27.8107586206896  Z M 124.142887931034 44.0470775862069  C 123.767965517241 43.083974137931  123.368965517241 42.1323362068965  122.947034482759 41.1933103448276  L 127.260362068966 39.3886379310345  L 128.453922413793 42.2435517241379  L 124.142887931034 44.0470775862069  Z M 121.586077586207 38.3567413793103  C 121.114844827586 37.4372068965517  120.622974137931 36.5302844827586  120.108172413793 35.6382672413793  L 124.223146551724 33.4047844827586  L 125.697612068965 36.1255517241379  L 121.586077586207 38.3567413793103  Z M 15.685974137931 31.1850603448275  C 15.0966465517241 32.0312155172414  14.5279568965517 32.8911293103448  13.9799051724138 33.7670948275862  L 10.1022672413793 31.2137241379311  L 11.8014568965517 28.62825  L 15.685974137931 31.1850603448275  Z M 12.3781724137931 36.4786896551724  C 11.8771293103448 37.3787327586207  11.3978706896552 38.2913879310345  10.9415431034483 39.2189482758621  L 6.83803448275862 37.0760431034482  L 8.26893103448276 34.3334913793103  L 12.3781724137931 36.4786896551724  Z M 23.8769396551724 21.6526293103449  C 23.1293879310345 22.3634913793103  22.4001810344828 23.091551724138  21.6881724137931 23.8391034482759  L 18.3895431034483 20.5393275862069  L 20.5771637931035 18.3517068965517  L 23.8769396551724 21.6526293103449  Z M 19.5750775862069 26.1723362068966  C 18.9031982758621 26.9531379310345  18.2496637931035 27.7511379310345  17.6156206896552 28.5663362068965  L 14.0085689655172 25.6208448275862  L 15.9645862068966 23.2234051724138  L 19.5750775862069 26.1723362068966  Z M 5.97926724137932 53.5325  C 5.76486206896551 54.5368793103448  5.57453448275862 55.5504310344828  5.40943103448276 56.5731551724137  L 0.864499999999993 55.718974137931  L 1.43548275862069 52.6783189655173  L 5.97926724137932 53.5325  Z M 4.9875 59.6963620689655  C 4.87513793103449 60.7167931034483  4.79029310344828 61.7452499999999  4.72837931034483 62.7805862068966  L 0.114655172413791 62.3873189655172  L 0.376068965517248 59.3042413793104  L 4.9875 59.6963620689655  Z M 9.85231896551724 41.5670862068965  C 9.43726724137932 42.509551724138  9.044 43.4634827586207  8.67595689655172 44.4288793103449  L 4.39358620689656 42.6723620689655  L 5.56765517241379 39.8094224137931  L 9.85231896551724 41.5670862068965  Z M 7.62571551724139 47.4007413793104  C 7.30812068965517 48.37875  7.01460344827586 49.3682241379311  6.74516379310344 50.3668706896552  L 2.31144827586206 49.051775862069  L 3.19199999999999 46.0845  L 7.62571551724139 47.4007413793104  Z M 55.5297931034483 5.60893103448274  C 54.5105086206897 5.79123275862071  53.5015431034483 5.99761206896551  52.4994568965517 6.22921551724136  L 51.5546982758621 1.64530172413794  L 54.5838879310345 1.02043103448278  L 55.5297931034483 5.60893103448274  Z M 49.4542155172414 7.01460344827586  C 48.4590086206896 7.29894827586207  47.4752672413793 7.60737068965517  46.5018448275862 7.93872413793105  L 45.1030517241379 3.48207758620691  L 48.0531293103448 2.5545172413793  L 49.4542155172414 7.01460344827586  Z M 68.0409655172414 4.66187931034483  C 67.5215775862069 4.64812068965517  67.0067758620689 4.62175000000002  66.4850948275862 4.62175000000002  C 65.9725862068966 4.62175000000002  65.4681034482759 4.64812068965517  64.9590344827586 4.66073275862067  L 64.9590344827586 0  L 68.0409655172414 0  L 68.0409655172414 4.66187931034483  Z M 61.8209224137931 4.81551724137933  C 60.7867327586207 4.89233620689657  59.7617155172414 4.99437931034481  58.7424310344828 5.12164655172415  L 58.2700517241379 0.455181034482735  L 61.3473965517241 0.143318965517267  L 61.8209224137931 4.81551724137933  Z M 32.8899827586207 14.5485948275862  C 32.0231896551724 15.1092586206897  31.1713017241379 15.6905603448276  30.3354655172414 16.2936465517241  L 27.7018362068966 12.4389396551724  L 30.2552068965517 10.6927413793103  L 32.8899827586207 14.5485948275862  Z M 27.83025 18.1980689655172  C 27.0253706896552 18.8424310344827  26.2353965517241 19.5062844827586  25.4637672413793 20.190775862069  L 22.4575086206897 16.6238534482759  L 24.8228448275862 14.6288534482759  L 27.83025 18.1980689655172  Z M 44.0734482758621 8.82386206896552  C 43.1103448275862 9.19878448275864  42.1598534482759 9.59663793103448  41.2208275862069 10.0174224137931  L 39.4195948275862 5.70982758620687  L 42.2722155172414 4.5162672413793  L 44.0734482758621 8.82386206896552  Z M 38.3831120689655 11.3772327586207  C 37.4624310344828 11.8473189655172  36.5566551724138 12.3391896551724  35.6634913793103 12.8528448275862  L 33.4380344827586 8.74818965517244  L 36.1565086206897 7.27257758620692  L 38.3831120689655 11.3772327586207  Z " fill-rule="nonzero" fill="#2d5470" stroke="none" transform="matrix(1 0 0 1 677 2603 )" />
  </g>
</svg>