<?xml version="1.0" encoding="utf-8"?>
<svg version="1.1" xmlns:xlink="http://www.w3.org/1999/xlink" width="1042px" height="463px" xmlns="http://www.w3.org/2000/svg">
  <defs>
    <filter x="507px" y="3174px" width="1042px" height="463px" filterUnits="userSpaceOnUse" id="filter438">
      <feOffset dx="0" dy="0" in="SourceAlpha" result="shadowOffsetInner" />
      <feGaussianBlur stdDeviation="2.5" in="shadowOffsetInner" result="shadowGaussian" />
      <feComposite in2="shadowGaussian" operator="atop" in="SourceAlpha" result="shadowComposite" />
      <feColorMatrix type="matrix" values="0 0 0 0 0  0 0 0 0 0  0 0 0 0 0  0 0 0 0.0470588235294118 0  " in="shadowComposite" />
    </filter>
    <g id="widget439">
      <path d="M 512.5 3189  A 9.5 9.5 0 0 1 522 3179.5 L 1534 3179.5  A 9.5 9.5 0 0 1 1543.5 3189 L 1543.5 3622  A 9.5 9.5 0 0 1 1534 3631.5 L 522 3631.5  A 9.5 9.5 0 0 1 512.5 3622 L 512.5 3189  Z " fill-rule="nonzero" fill="#ffffff" stroke="none" fill-opacity="0.996078431372549" />
      <path d="M 512.5 3189  A 9.5 9.5 0 0 1 522 3179.5 L 1534 3179.5  A 9.5 9.5 0 0 1 1543.5 3189 L 1543.5 3622  A 9.5 9.5 0 0 1 1534 3631.5 L 522 3631.5  A 9.5 9.5 0 0 1 512.5 3622 L 512.5 3189  Z " stroke-width="1" stroke="#e9e9e9" fill="none" />
    </g>
  </defs>
  <g transform="matrix(1 0 0 1 -507 -3174 )">
    <use xlink:href="#widget439" filter="url(#filter438)" />
    <use xlink:href="#widget439" />
  </g>
</svg>