<?xml version="1.0" encoding="utf-8"?>
<svg version="1.1" xmlns:xlink="http://www.w3.org/1999/xlink" width="18px" height="18px" preserveAspectRatio="xMinYMid meet" viewBox="254 274  18 16" xmlns="http://www.w3.org/2000/svg">
  <path d="M 261 282.5  L 285 282.5  A 5 5 0 0 1 290.5 287.5 L 290.5 344  A 5 5 0 0 0 295.5 349.5 L 305 349.5  " stroke-width="1" stroke="#fa2f6a" fill="none" />
  <path d="M 263 279.5  A 3 3 0 0 0 260 282.5 A 3 3 0 0 0 263 285.5 A 3 3 0 0 0 266 282.5 A 3 3 0 0 0 263 279.5 Z M 304 344  L 304 355  L 305 355  L 305 344  L 304 344  Z " fill-rule="nonzero" fill="#fa2f6a" stroke="none" />
</svg>