<?xml version="1.0" encoding="utf-8"?>
<svg version="1.1" xmlns:xlink="http://www.w3.org/1999/xlink" width="331px" height="130px" xmlns="http://www.w3.org/2000/svg">
  <defs>
    <filter x="-5px" y="-5px" width="331px" height="130px" filterUnits="userSpaceOnUse" id="filter305">
      <feOffset dx="0" dy="0" in="SourceAlpha" result="shadowOffsetInner" />
      <feGaussianBlur stdDeviation="2.5" in="shadowOffsetInner" result="shadowGaussian" />
      <feComposite in2="shadowGaussian" operator="atop" in="SourceAlpha" result="shadowComposite" />
      <feColorMatrix type="matrix" values="0 0 0 0 0  0 0 0 0 0  0 0 0 0 0  0 0 0 0.349019607843137 0  " in="shadowComposite" />
    </filter>
    <g id="widget306">
      <path d="M 18.9207317073171 119.728125  C 17.119071090491 119.728125  15.6585365853658 112.637634598325  16 103.891071428571  L 16 84.6666666666666  L 0.513394642143189 64.1065573770492  L 16 48.3278688524591  L 16 15.8370535714286  C 15.6585365853658 7.09049040167531  17.119071090491 0  18.9207317073171 0  L 317.737804878049 0  C 319.539465494875 0  321 7.09049040167531  321 15.8370535714286  L 321 103.891071428571  C 321 112.637634598325  319.539465494875 119.728125  317.737804878049 119  L 134.363487440845 119  L 100.553281068525 119.728125  L 93.031387445022 119.728125  L 86.9608013937282 119  L 59.7758420441347 119  L 18.9207317073171 119.728125  Z " fill-rule="nonzero" fill="#ffffff" stroke="none" fill-opacity="0.996078431372549" />
    </g>
  </defs>
  <g transform="matrix(1 0 0 1 5 5 )">
    <use xlink:href="#widget306" filter="url(#filter305)" />
    <use xlink:href="#widget306" />
  </g>
</svg>