<?xml version="1.0" encoding="utf-8"?>
<svg version="1.1" xmlns:xlink="http://www.w3.org/1999/xlink" width="30px" height="30px" xmlns="http://www.w3.org/2000/svg">
  <g transform="matrix(1 0 0 1 -1416 -1097 )">
    <path d="M 1431 1098  C 1438.84 1098  1445 1104.16  1445 1112  C 1445 1119.84  1438.84 1126  1431 1126  C 1423.16 1126  1417 1119.84  1417 1112  C 1417 1104.16  1423.16 1098  1431 1098  Z " fill-rule="nonzero" fill="#ffffff" stroke="none" />
    <path d="M 1431 1098  C 1438.84 1098  1445 1104.16  1445 1112  C 1445 1119.84  1438.84 1126  1431 1126  C 1423.16 1126  1417 1119.84  1417 1112  C 1417 1104.16  1423.16 1098  1431 1098  Z " stroke-width="2" stroke="#409eff" fill="none" />
  </g>
</svg>