<?xml version="1.0" encoding="utf-8"?>
<svg version="1.1" xmlns:xlink="http://www.w3.org/1999/xlink" width="80px" height="30px" xmlns="http://www.w3.org/2000/svg">
  <g transform="matrix(1 0 0 1 -357 -204 )">
    <path d="M 357.5 207  A 2.5 2.5 0 0 1 360 204.5 L 434 204.5  A 2.5 2.5 0 0 1 436.5 207 L 436.5 231  A 2.5 2.5 0 0 1 434 233.5 L 360 233.5  A 2.5 2.5 0 0 1 357.5 231 L 357.5 207  Z " fill-rule="nonzero" fill="#f9f9f9" stroke="none" />
    <path d="M 357.5 207  A 2.5 2.5 0 0 1 360 204.5 L 434 204.5  A 2.5 2.5 0 0 1 436.5 207 L 436.5 231  A 2.5 2.5 0 0 1 434 233.5 L 360 233.5  A 2.5 2.5 0 0 1 357.5 231 L 357.5 207  Z " stroke-width="1" stroke="#e4e4e4" fill="none" />
  </g>
</svg>