<?xml version="1.0" encoding="utf-8"?>
<svg version="1.1" xmlns:xlink="http://www.w3.org/1999/xlink" width="80px" height="30px" xmlns="http://www.w3.org/2000/svg">
  <g transform="matrix(1 0 0 1 -357 -204 )">
    <path d="M 358 207  A 2 2 0 0 1 360 205 L 434 205  A 2 2 0 0 1 436 207 L 436 231  A 2 2 0 0 1 434 233 L 360 233  A 2 2 0 0 1 358 231 L 358 207  Z " fill-rule="nonzero" fill="#f0f7ff" stroke="none" />
    <path d="M 357.5 207  A 2.5 2.5 0 0 1 360 204.5 L 434 204.5  A 2.5 2.5 0 0 1 436.5 207 L 436.5 231  A 2.5 2.5 0 0 1 434 233.5 L 360 233.5  A 2.5 2.5 0 0 1 357.5 231 L 357.5 207  Z " stroke-width="1" stroke="#7abbff" fill="none" stroke-opacity="0.996078431372549" />
  </g>
</svg>