<?xml version="1.0" encoding="utf-8"?>
<svg version="1.1" xmlns:xlink="http://www.w3.org/1999/xlink" width="10px" height="5px" preserveAspectRatio="xMinYMid meet" viewBox="1618 1748  10 3" xmlns="http://www.w3.org/2000/svg">
  <path d="M 1706 2057.5  L 1615 2057.5  A 5 5 0 0 1 1610.5 2052.5 L 1610.5 1752  A 5 5 0 0 1 1615.5 1747.5 L 1623 1747.5  " stroke-width="1" stroke="#0099ff" fill="none" />
  <path d="M 1704 2054.5  A 3 3 0 0 0 1701 2057.5 A 3 3 0 0 0 1704 2060.5 A 3 3 0 0 0 1707 2057.5 A 3 3 0 0 0 1704 2054.5 Z M 1622 1742  L 1622 1753  L 1623 1753  L 1623 1742  L 1622 1742  Z " fill-rule="nonzero" fill="#0099ff" stroke="none" />
</svg>