<?xml version="1.0" encoding="utf-8"?>
<svg version="1.1" xmlns:xlink="http://www.w3.org/1999/xlink" width="18px" height="18px" preserveAspectRatio="xMinYMid meet" viewBox="1614 2878  18 16" xmlns="http://www.w3.org/2000/svg">
  <path d="M 1581 2660.5  L 1605 2660.5  A 5 5 0 0 1 1610.5 2665.5 L 1610.5 2882  A 5 5 0 0 0 1615.5 2887.5 L 1623 2887.5  " stroke-width="1" stroke="#0099ff" fill="none" />
  <path d="M 1583 2657.5  A 3 3 0 0 0 1580 2660.5 A 3 3 0 0 0 1583 2663.5 A 3 3 0 0 0 1586 2660.5 A 3 3 0 0 0 1583 2657.5 Z M 1622 2882  L 1622 2893  L 1623 2893  L 1623 2882  L 1622 2882  Z " fill-rule="nonzero" fill="#0099ff" stroke="none" />
</svg>