<?xml version="1.0" encoding="utf-8"?>
<svg version="1.1" xmlns:xlink="http://www.w3.org/1999/xlink" width="18px" height="18px" preserveAspectRatio="xMinYMid meet" viewBox="1630 1693  18 16" xmlns="http://www.w3.org/2000/svg">
  <path d="M 1641 1701.5  L 1637 1701.5  A 5 5 0 0 1 1632.5 1696.5 L 1632.5 1549.5  A 4.5 4.5 0 0 0 1628 1545.5 L 1623 1545.5  " stroke-width="1" stroke="#0099ff" fill="none" />
  <path d="M 1639 1698.5  A 3 3 0 0 0 1636 1701.5 A 3 3 0 0 0 1639 1704.5 A 3 3 0 0 0 1642 1701.5 A 3 3 0 0 0 1639 1698.5 Z M 1624 1551  L 1624 1540  L 1623 1540  L 1623 1551  L 1624 1551  Z " fill-rule="nonzero" fill="#0099ff" stroke="none" />
</svg>