<?xml version="1.0" encoding="utf-8"?>
<svg version="1.1" xmlns:xlink="http://www.w3.org/1999/xlink" width="10px" height="261px" preserveAspectRatio="xMidYMin meet" viewBox="1676 526  8 261" xmlns="http://www.w3.org/2000/svg">
  <path d="M 1777 782.5  L 1685 782.5  A 5 5 0 0 1 1680.5 777.5 L 1680.5 536  A 5 5 0 0 1 1685.5 531.5 L 1695 531.5  " stroke-width="1" stroke="#0099ff" fill="none" />
  <path d="M 1775 779.5  A 3 3 0 0 0 1772 782.5 A 3 3 0 0 0 1775 785.5 A 3 3 0 0 0 1778 782.5 A 3 3 0 0 0 1775 779.5 Z M 1694 526  L 1694 537  L 1695 537  L 1695 526  L 1694 526  Z " fill-rule="nonzero" fill="#0099ff" stroke="none" />
</svg>