<?xml version="1.0" encoding="utf-8"?>
<svg version="1.1" xmlns:xlink="http://www.w3.org/1999/xlink" width="29px" height="10px" preserveAspectRatio="xMinYMid meet" viewBox="1005 1209  29 8" xmlns="http://www.w3.org/2000/svg">
  <path d="M 1247 961.5  L 1015 961.5  A 5 5 0 0 0 1010.5 966.5 L 1010.5 1208  A 5 5 0 0 0 1015.5 1213.5 L 1029 1213.5  " stroke-width="1" stroke="#0099ff" fill="none" />
  <path d="M 1245 958.5  A 3 3 0 0 0 1242 961.5 A 3 3 0 0 0 1245 964.5 A 3 3 0 0 0 1248 961.5 A 3 3 0 0 0 1245 958.5 Z M 1028 1208  L 1028 1219  L 1029 1219  L 1029 1208  L 1028 1208  Z " fill-rule="nonzero" fill="#0099ff" stroke="none" />
</svg>