<?xml version="1.0" encoding="utf-8"?>
<svg version="1.1" xmlns:xlink="http://www.w3.org/1999/xlink" width="18px" height="18px" preserveAspectRatio="xMinYMid meet" viewBox="1331 496  18 16" xmlns="http://www.w3.org/2000/svg">
  <path d="M 1261.5 545  L 1261.5 530  A 5 5 0 0 1 1266.5 525.5 L 1345 525.5  A 5 5 0 0 0 1350.5 520.5 L 1350.5 510  A 5 5 0 0 0 1345.5 505.5 L 1340 505.5  " stroke-width="1" stroke="#fa2f6a" fill="none" />
  <path d="M 1261.5 540  A 3 3 0 0 0 1258.5 543 A 3 3 0 0 0 1261.5 546 A 3 3 0 0 0 1264.5 543 A 3 3 0 0 0 1261.5 540 Z M 1341 511  L 1341 500  L 1340 500  L 1340 511  L 1341 511  Z " fill-rule="nonzero" fill="#fa2f6a" stroke="none" />
</svg>