<?xml version="1.0" encoding="utf-8"?>
<svg version="1.1" xmlns:xlink="http://www.w3.org/1999/xlink" width="481px" height="58px" xmlns="http://www.w3.org/2000/svg">
  <g transform="matrix(1 0 0 1 -1193 -692 )">
    <path d="M 1193 724.8  C 1193 724.8  1193 697  1193 697  C 1193 694.238576250846  1195.23857625085 692  1198 692  C 1198 692  1669 692  1669 692  C 1671.76142374915 692  1674 694.238576250846  1674 697  C 1674 697  1674 724.8  1674 724.8  C 1674 727.561423749154  1671.76142374915 729.8  1669 729.8  C 1669 729.8  1509.21008403361 729.8  1509.21008403361 729.8  C 1509.21008403361 729.8  1492.90756302521 749.621848739496  1492.90756302521 749.621848739496  C 1492.90756302521 749.621848739496  1481.98319327731 729.8  1481.98319327731 729.8  C 1481.98319327731 729.8  1198 729.8  1198 729.8  C 1195.23857625085 729.8  1193 727.561423749154  1193 724.8  Z " fill-rule="nonzero" fill="#000000" stroke="none" fill-opacity="0.8" />
  </g>
</svg>