<?xml version="1.0" encoding="utf-8"?>
<svg version="1.1" xmlns:xlink="http://www.w3.org/1999/xlink" width="468px" height="54px" xmlns="http://www.w3.org/2000/svg">
  <g transform="matrix(1 0 0 1 -1082 -692 )">
    <path d="M 1082 724.8  C 1082 724.8  1082 697  1082 697  C 1082 694.238576250846  1084.23857625085 692  1087 692  C 1087 692  1545 692  1545 692  C 1547.76142374915 692  1550 694.238576250846  1550 697  C 1550 697  1550 724.8  1550 724.8  C 1550 727.561423749154  1547.76142374915 729.8  1545 729.8  C 1545 729.8  1288.28571428571 729.8  1288.28571428571 729.8  C 1288.28571428571 729.8  1248.78991596639 745.579831932773  1248.78991596639 745.579831932773  C 1248.78991596639 745.579831932773  1242.06722689076 729.8  1242.06722689076 729.8  C 1242.06722689076 729.8  1087 729.8  1087 729.8  C 1084.23857625085 729.8  1082 727.561423749154  1082 724.8  Z " fill-rule="nonzero" fill="#000000" stroke="none" fill-opacity="0.8" />
  </g>
</svg>