<?xml version="1.0" encoding="utf-8"?>
<svg version="1.1" xmlns:xlink="http://www.w3.org/1999/xlink" width="20px" height="10px" preserveAspectRatio="xMinYMid meet" viewBox="175 48  20 8" xmlns="http://www.w3.org/2000/svg">
  <path d="M 148.5 53  L 148.5 65  A 5 5 0 0 0 153.5 70.5 L 185 70.5  A 5 5 0 0 0 190.5 65.5 L 190.5 57  A 5 5 0 0 0 185.5 52.5 L 180 52.5  " stroke-width="1" stroke="#fa2f6a" fill="none" />
  <path d="M 148.5 52  A 3 3 0 0 0 145.5 55 A 3 3 0 0 0 148.5 58 A 3 3 0 0 0 151.5 55 A 3 3 0 0 0 148.5 52 Z M 181 58  L 181 47  L 180 47  L 180 58  L 181 58  Z " fill-rule="nonzero" fill="#fa2f6a" stroke="none" />
</svg>