<?xml version="1.0" encoding="utf-8"?>
<svg version="1.1" xmlns:xlink="http://www.w3.org/1999/xlink" width="10px" height="31px" preserveAspectRatio="xMidYMin meet" viewBox="236 8  8 31" xmlns="http://www.w3.org/2000/svg">
  <path d="M 333 34.5  L 245 34.5  A 5 5 0 0 1 240.5 29.5 L 240.5 18  A 5 5 0 0 1 245.5 13.5 L 251 13.5  " stroke-width="1" stroke="#fa2f6a" fill="none" />
  <path d="M 331 31.5  A 3 3 0 0 0 328 34.5 A 3 3 0 0 0 331 37.5 A 3 3 0 0 0 334 34.5 A 3 3 0 0 0 331 31.5 Z M 250 8  L 250 19  L 251 19  L 251 8  L 250 8  Z " fill-rule="nonzero" fill="#fa2f6a" stroke="none" />
</svg>