<?xml version="1.0" encoding="utf-8"?>
<svg version="1.1" xmlns:xlink="http://www.w3.org/1999/xlink" width="80px" height="30px" xmlns="http://www.w3.org/2000/svg">
  <g transform="matrix(1 0 0 1 -440 -418 )">
    <path d="M 441 421  A 2 2 0 0 1 443 419 L 517 419  A 2 2 0 0 1 519 421 L 519 445  A 2 2 0 0 1 517 447 L 443 447  A 2 2 0 0 1 441 445 L 441 421  Z " fill-rule="nonzero" fill="#f0f7ff" stroke="none" />
    <path d="M 440.5 421  A 2.5 2.5 0 0 1 443 418.5 L 517 418.5  A 2.5 2.5 0 0 1 519.5 421 L 519.5 445  A 2.5 2.5 0 0 1 517 447.5 L 443 447.5  A 2.5 2.5 0 0 1 440.5 445 L 440.5 421  Z " stroke-width="1" stroke="#7abbff" fill="none" stroke-opacity="0.996078431372549" />
  </g>
</svg>