<?xml version="1.0" encoding="utf-8"?>
<svg version="1.1" xmlns:xlink="http://www.w3.org/1999/xlink" width="10px" height="10px" xmlns="http://www.w3.org/2000/svg">
  <g transform="matrix(1 0 0 1 -30 -18 )">
    <path d="M 35 19  C 37.24 19  39 20.76  39 23  C 39 25.24  37.24 27  35 27  C 32.76 27  31 25.24  31 23  C 31 20.76  32.76 19  35 19  Z " fill-rule="nonzero" fill="#ffffff" stroke="none" />
    <path d="M 35 19  C 37.24 19  39 20.76  39 23  C 39 25.24  37.24 27  35 27  C 32.76 27  31 25.24  31 23  C 31 20.76  32.76 19  35 19  Z " stroke-width="2" stroke="#409eff" fill="none" />
  </g>
</svg>