<?xml version="1.0" encoding="utf-8"?>
<svg version="1.1" xmlns:xlink="http://www.w3.org/1999/xlink" width="30px" height="30px" xmlns="http://www.w3.org/2000/svg">
  <g transform="matrix(1 0 0 1 -91 -15 )">
    <path d="M 106 16  C 113.84 16  120 22.16  120 30  C 120 37.84  113.84 44  106 44  C 98.16 44  92 37.84  92 30  C 92 22.16  98.16 16  106 16  Z " fill-rule="nonzero" fill="#ffffff" stroke="none" />
    <path d="M 106 16  C 113.84 16  120 22.16  120 30  C 120 37.84  113.84 44  106 44  C 98.16 44  92 37.84  92 30  C 92 22.16  98.16 16  106 16  Z " stroke-width="2" stroke="#409eff" fill="none" />
  </g>
</svg>