<?xml version="1.0" encoding="utf-8"?>
<svg version="1.1" xmlns:xlink="http://www.w3.org/1999/xlink" width="30px" height="30px" xmlns="http://www.w3.org/2000/svg">
  <g transform="matrix(1 0 0 1 -91 -151 )">
    <path d="M 106 152  C 113.84 152  120 158.16  120 166  C 120 173.84  113.84 180  106 180  C 98.16 180  92 173.84  92 166  C 92 158.16  98.16 152  106 152  Z " fill-rule="nonzero" fill="#ffffff" stroke="none" />
    <path d="M 106 152  C 113.84 152  120 158.16  120 166  C 120 173.84  113.84 180  106 180  C 98.16 180  92 173.84  92 166  C 92 158.16  98.16 152  106 152  Z " stroke-width="2" stroke="#f56c6c" fill="none" />
  </g>
</svg>