<?xml version="1.0" encoding="utf-8"?>
<svg version="1.1" xmlns:xlink="http://www.w3.org/1999/xlink" width="18px" height="18px" preserveAspectRatio="xMinYMid meet" viewBox="260 129  18 16" xmlns="http://www.w3.org/2000/svg">
  <path d="M 269.5 135  L 269.5 180  A 3 3 0 0 1 272.5 183 A 3 3 0 0 1 269.5 186 L 269.5 273  A 5 5 0 0 0 274.5 278.5 L 526 278.5  " stroke-width="1" stroke="#0099ff" fill="none" />
  <path d="M 269.5 134  A 3 3 0 0 0 266.5 137 A 3 3 0 0 0 269.5 140 A 3 3 0 0 0 272.5 137 A 3 3 0 0 0 269.5 134 Z M 525 273  L 525 284  L 526 284  L 526 273  L 525 273  Z " fill-rule="nonzero" fill="#0099ff" stroke="none" />
</svg>