<?xml version="1.0" encoding="utf-8"?>
<svg version="1.1" xmlns:xlink="http://www.w3.org/1999/xlink" width="18px" height="18px" preserveAspectRatio="xMinYMid meet" viewBox="281 645  18 16" xmlns="http://www.w3.org/2000/svg">
  <path d="M 258.5 653  L 258.5 635  A 5 5 0 0 1 263.5 630.5 L 295 630.5  A 5 5 0 0 1 300.5 635.5 L 300.5 649  A 5 5 0 0 1 295.5 654.5 L 290 654.5  " stroke-width="1" stroke="#0099ff" fill="none" />
  <path d="M 258.5 648  A 3 3 0 0 0 255.5 651 A 3 3 0 0 0 258.5 654 A 3 3 0 0 0 261.5 651 A 3 3 0 0 0 258.5 648 Z M 291 660  L 291 649  L 290 649  L 290 660  L 291 660  Z " fill-rule="nonzero" fill="#0099ff" stroke="none" />
</svg>