<?xml version="1.0" encoding="utf-8"?>
<svg version="1.1" xmlns:xlink="http://www.w3.org/1999/xlink" width="25px" height="10px" preserveAspectRatio="xMinYMid meet" viewBox="25 373  25 8" xmlns="http://www.w3.org/2000/svg">
  <path d="M 103 145.5  L 35 145.5  A 5 5 0 0 0 30.5 150.5 L 30.5 372  A 5 5 0 0 0 35.5 377.5 L 45 377.5  " stroke-width="1" stroke="#fa2f6a" fill="none" />
  <path d="M 101 142.5  A 3 3 0 0 0 98 145.5 A 3 3 0 0 0 101 148.5 A 3 3 0 0 0 104 145.5 A 3 3 0 0 0 101 142.5 Z M 44 372  L 44 383  L 45 383  L 45 372  L 44 372  Z " fill-rule="nonzero" fill="#fa2f6a" stroke="none" />
</svg>