<?xml version="1.0" encoding="utf-8"?>
<svg version="1.1" xmlns:xlink="http://www.w3.org/1999/xlink" width="18px" height="18px" preserveAspectRatio="xMinYMid meet" viewBox="531 122  18 16" xmlns="http://www.w3.org/2000/svg">
  <path d="M 491.5 174  L 491.5 155  A 5 5 0 0 1 496.5 150.5 L 545 150.5  A 5 5 0 0 0 550.5 145.5 L 550.5 136  A 5 5 0 0 0 545.5 131.5 L 540 131.5  " stroke-width="1" stroke="#fa2f6a" fill="none" />
  <path d="M 491.5 169  A 3 3 0 0 0 488.5 172 A 3 3 0 0 0 491.5 175 A 3 3 0 0 0 494.5 172 A 3 3 0 0 0 491.5 169 Z M 541 137  L 541 126  L 540 126  L 540 137  L 541 137  Z " fill-rule="nonzero" fill="#fa2f6a" stroke="none" />
</svg>