<?xml version="1.0" encoding="utf-8"?>
<svg version="1.1" xmlns:xlink="http://www.w3.org/1999/xlink" width="257px" height="136px" xmlns="http://www.w3.org/2000/svg">
  <g>
    <path d="M 0 117.85  C 0 117.85  0 5  0 5  C 0 2.23857625084603  2.23857625084603 0  5 0  C 5 0  252 0  252 0  C 254.761423749154 0  257 2.23857625084603  257 5  C 257 5  257 117.85  257 117.85  C 257 120.611423749154  254.761423749154 122.85  252 122.85  C 252 122.85  79.6790492957746 122.85  79.6790492957746 122.85  C 79.6790492957746 122.85  68.2857142857143 135.857142857143  68.2857142857143 135.857142857143  C 68.2857142857143 135.857142857143  55.5475938967136 122.85  55.5475938967136 122.85  C 55.5475938967136 122.85  5 122.85  5 122.85  C 2.23857625084603 122.85  0 120.611423749154  0 117.85  Z " fill-rule="nonzero" fill="#000000" stroke="none" fill-opacity="0.8" />
  </g>
</svg>