<?xml version="1.0" encoding="utf-8"?>
<svg version="1.1" xmlns:xlink="http://www.w3.org/1999/xlink" width="10px" height="62px" preserveAspectRatio="xMidYMin meet" viewBox="566 590  8 62" xmlns="http://www.w3.org/2000/svg">
  <path d="M 611 595.5  L 575 595.5  A 5 5 0 0 0 570.5 600.5 L 570.5 642  A 5 5 0 0 0 575.5 647.5 L 584 647.5  " stroke-width="1" stroke="#fa2f6a" fill="none" />
  <path d="M 609 592.5  A 3 3 0 0 0 606 595.5 A 3 3 0 0 0 609 598.5 A 3 3 0 0 0 612 595.5 A 3 3 0 0 0 609 592.5 Z M 583 642  L 583 653  L 584 653  L 584 642  L 583 642  Z " fill-rule="nonzero" fill="#fa2f6a" stroke="none" />
</svg>