<?xml version="1.0" encoding="utf-8"?>
<svg version="1.1" xmlns:xlink="http://www.w3.org/1999/xlink" width="257px" height="48px" xmlns="http://www.w3.org/2000/svg">
  <g>
    <path d="M 0 32.8  C 0 32.8  0 5  0 5  C 0 2.23857625084603  2.23857625084603 0  5 0  C 5 0  252 0  252 0  C 254.761423749154 0  257 2.23857625084603  257 5  C 257 5  257 32.8  257 32.8  C 257 35.561423749154  254.761423749154 37.8  252 37.8  C 252 37.8  79.6790492957747 37.8  79.6790492957747 37.8  C 79.6790492957747 37.8  67.3619522691705 47.75  67.3619522691705 47.75  C 67.3619522691705 47.75  55.5475938967136 37.8  55.5475938967136 37.8  C 55.5475938967136 37.8  5 37.8  5 37.8  C 2.23857625084603 37.8  0 35.561423749154  0 32.8  Z " fill-rule="nonzero" fill="#000000" stroke="none" fill-opacity="0.8" />
  </g>
</svg>