<?xml version="1.0" encoding="utf-8"?>
<svg version="1.1" xmlns:xlink="http://www.w3.org/1999/xlink" width="20px" height="10px" preserveAspectRatio="xMinYMid meet" viewBox="1125 715  20 8" xmlns="http://www.w3.org/2000/svg">
  <path d="M 378.5 713  L 378.5 705  A 5 5 0 0 1 383.5 700.5 L 1135 700.5  A 5 5 0 0 1 1140.5 705.5 L 1140.5 714  A 5 5 0 0 1 1135.5 719.5 L 1130 719.5  " stroke-width="1" stroke="#fa2f6a" fill="none" />
  <path d="M 378.5 708  A 3 3 0 0 0 375.5 711 A 3 3 0 0 0 378.5 714 A 3 3 0 0 0 381.5 711 A 3 3 0 0 0 378.5 708 Z M 1131 725  L 1131 714  L 1130 714  L 1130 725  L 1131 725  Z " fill-rule="nonzero" fill="#fa2f6a" stroke="none" />
</svg>