<?xml version="1.0" encoding="utf-8"?>
<svg version="1.1" xmlns:xlink="http://www.w3.org/1999/xlink" width="125px" height="1152px" xmlns="http://www.w3.org/2000/svg">
  <g transform="matrix(1 0 0 1 -574 513 )">
    <path d="M 574.954589340886 620.079051383399  C 574.954589340886 620.079051383399  574.954589340886 -509.897951850521  574.954589340886 -509.897951850521  C 574.954589340886 -511.278663725098  576.073877466309 -512.397951850521  577.454589340886 -512.397951850521  C 577.454589340886 -512.397951850521  695.545410659114 -512.397951850521  695.545410659114 -512.397951850521  C 696.926122533691 -512.397951850521  698.045410659114 -511.278663725098  698.045410659114 -509.897951850521  C 698.045410659114 -509.897951850521  698.045410659114 620.079051383399  698.045410659114 620.079051383399  C 698.045410659114 621.459763257976  696.926122533691 622.579051383399  695.545410659114 622.579051383399  C 695.545410659114 622.579051383399  614.400396113219 622.579051383399  614.400396113219 622.579051383399  C 614.400396113219 622.579051383399  605.476833097332 637.912703359638  605.476833097332 637.912703359638  C 605.476833097332 637.912703359638  594.9511670672 622.579051383399  594.9511670672 622.579051383399  C 594.9511670672 622.579051383399  577.454589340886 622.579051383399  577.454589340886 622.579051383399  C 576.073877466309 622.579051383399  574.954589340886 621.459763257976  574.954589340886 620.079051383399  Z " fill-rule="nonzero" fill="#ffffff" stroke="none" />
    <path d="M 574.454589340886 620.079051383399  C 574.454589340886 620.079051383399  574.454589340886 -509.897951850521  574.454589340886 -509.897951850521  C 574.454589340886 -511.554806100013  575.797735091393 -512.897951850521  577.454589340886 -512.897951850521  C 577.454589340886 -512.897951850521  695.545410659114 -512.897951850521  695.545410659114 -512.897951850521  C 697.202264908607 -512.897951850521  698.545410659114 -511.554806100013  698.545410659114 -509.897951850521  C 698.545410659114 -509.897951850521  698.545410659114 620.079051383399  698.545410659114 620.079051383399  C 698.545410659114 621.735905632891  697.202264908607 623.079051383399  695.545410659114 623.079051383399  C 695.545410659114 623.079051383399  614.687922406025 623.079051383399  614.687922406025 623.079051383399  C 614.687922406025 623.079051383399  605.511658406282 638.846927775781  605.511658406282 638.846927775781  C 605.511658406282 638.846927775781  594.687922406025 623.079051383399  594.687922406025 623.079051383399  C 594.687922406025 623.079051383399  577.454589340886 623.079051383399  577.454589340886 623.079051383399  C 575.797735091393 623.079051383399  574.454589340886 621.735905632891  574.454589340886 620.079051383399  Z M 575.454589340886 620.079051383399  C 575.454589340886 621.183620883061  576.350019841224 622.079051383399  577.454589340886 622.079051383399  C 577.454589340886 622.079051383399  595.214411728373 622.079051383399  595.214411728373 622.079051383399  C 595.214411728373 622.079051383399  605.442007788381 636.978478943495  605.442007788381 636.978478943495  C 605.442007788381 636.978478943495  614.112869820413 622.079051383399  614.112869820413 622.079051383399  C 614.112869820413 622.079051383399  695.545410659114 622.079051383399  695.545410659114 622.079051383399  C 696.649980158776 622.079051383399  697.545410659114 621.183620883061  697.545410659114 620.079051383399  C 697.545410659114 620.079051383399  697.545410659114 -509.897951850521  697.545410659114 -509.897951850521  C 697.545410659114 -511.002521350183  696.649980158776 -511.897951850521  695.545410659114 -511.897951850521  C 695.545410659114 -511.897951850521  577.454589340886 -511.897951850521  577.454589340886 -511.897951850521  C 576.350019841224 -511.897951850521  575.454589340886 -511.002521350183  575.454589340886 -509.897951850521  C 575.454589340886 -509.897951850521  575.454589340886 620.079051383399  575.454589340886 620.079051383399  Z " fill-rule="nonzero" fill="#e9e9e9" stroke="none" />
  </g>
</svg>