<?xml version="1.0" encoding="utf-8"?>
<svg version="1.1" xmlns:xlink="http://www.w3.org/1999/xlink" width="15px" height="15px" xmlns="http://www.w3.org/2000/svg">
  <g transform="matrix(1 0 0 1 -103 -2421 )">
    <path d="M 110.5 2422  C 114.14 2422  117 2424.86  117 2428.5  C 117 2432.14  114.14 2435  110.5 2435  C 106.86 2435  104 2432.14  104 2428.5  C 104 2424.86  106.86 2422  110.5 2422  Z " fill-rule="nonzero" fill="#ffffff" stroke="none" />
    <path d="M 110.5 2422  C 114.14 2422  117 2424.86  117 2428.5  C 117 2432.14  114.14 2435  110.5 2435  C 106.86 2435  104 2432.14  104 2428.5  C 104 2424.86  106.86 2422  110.5 2422  Z " stroke-width="2" stroke="#0079fe" fill="none" />
  </g>
</svg>