<?xml version="1.0" encoding="utf-8"?>
<svg version="1.1" xmlns:xlink="http://www.w3.org/1999/xlink" width="5px" height="5px" xmlns="http://www.w3.org/2000/svg">
  <g transform="matrix(1 0 0 1 -82 -896 )">
    <path d="M 84.5 896  C 85.9 896  87 897.1  87 898.5  C 87 899.9  85.9 901  84.5 901  C 83.1 901  82 899.9  82 898.5  C 82 897.1  83.1 896  84.5 896  Z " fill-rule="nonzero" fill="#d9001b" stroke="none" />
    <path d="M 84.5 896.5  C 85.62 896.5  86.5 897.38  86.5 898.5  C 86.5 899.62  85.62 900.5  84.5 900.5  C 83.38 900.5  82.5 899.62  82.5 898.5  C 82.5 897.38  83.38 896.5  84.5 896.5  Z " stroke-width="1" stroke="#d9001b" fill="none" />
  </g>
</svg>