<?xml version="1.0" encoding="utf-8"?>
<svg version="1.1" xmlns:xlink="http://www.w3.org/1999/xlink" width="5px" height="5px" xmlns="http://www.w3.org/2000/svg">
  <g transform="matrix(1 0 0 1 -82 -975 )">
    <path d="M 84.5 975  C 85.9 975  87 976.1  87 977.5  C 87 978.9  85.9 980  84.5 980  C 83.1 980  82 978.9  82 977.5  C 82 976.1  83.1 975  84.5 975  Z " fill-rule="nonzero" fill="#d9001b" stroke="none" />
    <path d="M 84.5 975.5  C 85.62 975.5  86.5 976.38  86.5 977.5  C 86.5 978.62  85.62 979.5  84.5 979.5  C 83.38 979.5  82.5 978.62  82.5 977.5  C 82.5 976.38  83.38 975.5  84.5 975.5  Z " stroke-width="1" stroke="#d9001b" fill="none" />
  </g>
</svg>