<?xml version="1.0" encoding="utf-8"?>
<svg version="1.1" xmlns:xlink="http://www.w3.org/1999/xlink" width="20px" height="20px" xmlns="http://www.w3.org/2000/svg">
  <g transform="matrix(1 0 0 1 -14 -886 )">
    <path d="M 24 887  C 29.04 887  33 890.96  33 896  C 33 901.04  29.04 905  24 905  C 18.96 905  15 901.04  15 896  C 15 890.96  18.96 887  24 887  Z " fill-rule="nonzero" fill="#ffffff" stroke="none" />
    <path d="M 24 887  C 29.04 887  33 890.96  33 896  C 33 901.04  29.04 905  24 905  C 18.96 905  15 901.04  15 896  C 15 890.96  18.96 887  24 887  Z " stroke-width="2" stroke="#409eff" fill="none" />
  </g>
</svg>