<?xml version="1.0" encoding="utf-8"?>
<svg version="1.1" xmlns:xlink="http://www.w3.org/1999/xlink" width="20px" height="20px" xmlns="http://www.w3.org/2000/svg">
  <g transform="matrix(1 0 0 1 -15 -890 )">
    <path d="M 25 891  C 30.04 891  34 894.96  34 900  C 34 905.04  30.04 909  25 909  C 19.96 909  16 905.04  16 900  C 16 894.96  19.96 891  25 891  Z " fill-rule="nonzero" fill="#ffffff" stroke="none" />
    <path d="M 25 891  C 30.04 891  34 894.96  34 900  C 34 905.04  30.04 909  25 909  C 19.96 909  16 905.04  16 900  C 16 894.96  19.96 891  25 891  Z " stroke-width="2" stroke="#409eff" fill="none" />
  </g>
</svg>