<?xml version="1.0" encoding="utf-8"?>
<svg version="1.1" xmlns:xlink="http://www.w3.org/1999/xlink" width="34px" height="10px" preserveAspectRatio="xMinYMid meet" viewBox="115 73  34 8" xmlns="http://www.w3.org/2000/svg">
  <path d="M 148 77.5  L 125 77.5  A 5 5 0 0 0 120.5 82.5 L 120.5 113  A 5 5 0 0 0 125.5 118.5 L 133 118.5  " stroke-width="1" stroke="#fa2f6a" fill="none" />
  <path d="M 146 74.5  A 3 3 0 0 0 143 77.5 A 3 3 0 0 0 146 80.5 A 3 3 0 0 0 149 77.5 A 3 3 0 0 0 146 74.5 Z M 132 113  L 132 124  L 133 124  L 133 113  L 132 113  Z " fill-rule="nonzero" fill="#fa2f6a" stroke="none" />
</svg>