<?xml version="1.0" encoding="utf-8"?>
<svg version="1.1" xmlns:xlink="http://www.w3.org/1999/xlink" width="52px" height="10px" preserveAspectRatio="xMinYMid meet" viewBox="233 416  52 8" xmlns="http://www.w3.org/2000/svg">
  <path d="M 238.5 438  L 238.5 425  A 5 5 0 0 1 243.5 420.5 L 275 420.5  A 5 5 0 0 1 280.5 425.5 L 280.5 434  A 5 5 0 0 1 275.5 439.5 L 270 439.5  " stroke-width="1" stroke="#fa2f6a" fill="none" />
  <path d="M 238.5 433  A 3 3 0 0 0 235.5 436 A 3 3 0 0 0 238.5 439 A 3 3 0 0 0 241.5 436 A 3 3 0 0 0 238.5 433 Z M 271 445  L 271 434  L 270 434  L 270 445  L 271 445  Z " fill-rule="nonzero" fill="#fa2f6a" stroke="none" />
</svg>