<?xml version="1.0" encoding="utf-8"?>
<svg version="1.1" xmlns:xlink="http://www.w3.org/1999/xlink" width="10px" height="28px" preserveAspectRatio="xMidYMin meet" viewBox="216 1173  8 28" xmlns="http://www.w3.org/2000/svg">
  <path d="M 178.5 1195  L 178.5 1183  A 5 5 0 0 1 183.5 1178.5 L 215 1178.5  A 5 5 0 0 1 220.5 1183.5 L 220.5 1191  A 5 5 0 0 1 215.5 1196.5 L 210 1196.5  " stroke-width="1" stroke="#fa2f6a" fill="none" />
  <path d="M 178.5 1190  A 3 3 0 0 0 175.5 1193 A 3 3 0 0 0 178.5 1196 A 3 3 0 0 0 181.5 1193 A 3 3 0 0 0 178.5 1190 Z M 211 1202  L 211 1191  L 210 1191  L 210 1202  L 211 1202  Z " fill-rule="nonzero" fill="#fa2f6a" stroke="none" />
</svg>