<?xml version="1.0" encoding="utf-8"?>
<svg version="1.1" xmlns:xlink="http://www.w3.org/1999/xlink" width="110px" height="125px" xmlns="http://www.w3.org/2000/svg">
  <g transform="matrix(1 0 0 1 -132 -181 )">
    <path d="M 108 32.0062594849991  L 55.1436421183875 1.6276665517553  L 3 32.0062594849991  L 3 92.7633761169472  L 55.1436421183875 123.142107519271  L 108 92.7633761169472  L 108 32.0062594849991  Z M 54.5703501266647 0.646128480077576  C 54.7476713223509 0.544284471934924  54.9456567203693 0.493327850593708  55.1436421183875 0.493327850593708  C 55.3416275164057 0.493327850593708  55.5396129144242 0.544284471934924  55.7169341101104 0.646128480077576  L 108.592718433889 31.0247214133215  C 108.945824972386 31.2275786151283  109.163217965837 31.6015835994835  109 32.0062594849991  L 109 92.7633761169472  C 109.163217965837 93.1680520024629  108.945824972386 93.542056986818  108.592718433889 93.7449141886249  L 55.7169341101104 124.123645590949  C 55.5396129144242 124.225489599091  55.3416275164057 124.276446220432  55.1436421183875 124.276446220432  C 54.9456567203693 124.276446220432  54.7476713223509 124.225489599091  54.5703501266647 124.123645590949  L 1.69442617989771 93.7449141886249  C 1.34131964140072 93.542056986818  1.12392664794944 93.1680520024629  2 92.7633761169472  L 2 32.0062594849991  C 1.12392664794944 31.6015835994835  1.34131964140072 31.2275786151283  1.69442617989771 31.0247214133215  L 54.5703501266647 0.646128480077576  Z " fill-rule="nonzero" fill="#389aff" stroke="none" transform="matrix(1 0 0 1 132 181 )" />
  </g>
</svg>