<?xml version="1.0" encoding="utf-8"?>
<svg version="1.1" xmlns:xlink="http://www.w3.org/1999/xlink" width="144px" height="167px" xmlns="http://www.w3.org/2000/svg">
  <g transform="matrix(1 0 0 1 -114 -161 )">
    <path d="M 142 42.6123678581495  L 72.1449401459556 1.84126764086608  L 2 42.6123678581495  L 2 124.154707672278  L 72.1449401459556 164.925877579342  L 142 124.154707672278  L 142 42.6123678581495  Z M 71.5731372243411 0.853275620223906  C 71.7499978454931 0.750761952849762  71.9474689957242 0.699470274272199  72.1449401459556 0.699470274272199  C 72.3424112961867 0.699470274272199  72.5398824464181 0.750761952849762  72.7167430675701 0.853275620223906  L 143.03471565333 41.6243758375074  C 143.386905031986 41.8285668948878  143.603733368312 42.2050310900989  143 42.6123678581495  L 143 124.154707672278  C 143.603733368312 124.562044440328  143.386905031986 124.938508635539  143.03471565333 125.14269969292  L 72.7167430675701 165.913869599984  C 72.5398824464181 166.016383267358  72.3424112961867 166.067674945936  72.1449401459556 166.067674945936  C 71.9474689957242 166.067674945936  71.7499978454931 166.016383267358  71.5731372243411 165.913869599984  L 1.2550253782504 125.14269969292  C 0.90297525992563 124.938508635539  0.686146923600193 124.562044440328  1 124.154707672278  L 1 42.6123678581495  C 0.686146923600193 42.2050310900989  0.90297525992563 41.8285668948878  1.2550253782504 41.6243758375074  L 71.5731372243411 0.853275620223906  Z " fill-rule="nonzero" fill="#389aff" stroke="none" transform="matrix(1 0 0 1 114 161 )" />
  </g>
</svg>