<?xml version="1.0" encoding="utf-8"?>
<svg version="1.1" xmlns:xlink="http://www.w3.org/1999/xlink" width="38px" height="44px" xmlns="http://www.w3.org/2000/svg">
  <g transform="matrix(1 0 0 1 -166 -222 )">
    <path d="M 36 11.5656899434348  L 19.1367039655903 1.24772156334987  L 2 11.5656899434348  L 2 32.2019088890132  L 19.1367039655903 42.5199478154502  L 36 32.2019088890132  L 36 11.5656899434348  Z M 18.5775143437173 0.247585928208908  C 18.750473627638 0.1438122441225  18.943588796614 0.0918901289032395  19.1367039655903 0.0918901289032395  C 19.3298191345663 0.0918901289032395  19.5229343035426 0.1438122441225  19.6958935874633 0.247585928208908  L 36.8879102207768 10.5655543082937  C 37.2323307160811 10.7722551202401  37.4443760743993 11.153346514825  37 11.5656899434348  L 37 32.2019088890132  C 37.4443760743993 32.6142523176229  37.2323307160811 32.9953437122079  36.8879102207768 33.2020445241543  L 19.6958935874633 43.5200834505913  C 19.5229343035426 43.6238571346777  19.3298191345663 43.675779249897  19.1367039655903 43.675779249897  C 18.943588796614 43.675779249897  18.7503374392248 43.6238571346777  18.5775143437173 43.5200834505913  L 1.38577008722751 33.2020445241543  C 1.04148578033638 32.9953437122079  0.829440422018372 32.6142523176229  1 32.2019088890132  L 1 11.5656899434348  C 0.829440422018372 11.153346514825  1.04148578033638 10.7722551202401  1.38590627564064 10.5655543082937  L 18.5775143437173 0.247585928208908  Z " fill-rule="nonzero" fill="#389aff" stroke="none" transform="matrix(1 0 0 1 166 222 )" />
  </g>
</svg>