<?xml version="1.0" encoding="utf-8"?>
<svg version="1.1" xmlns:xlink="http://www.w3.org/1999/xlink" width="179px" height="208px" xmlns="http://www.w3.org/2000/svg">
  <g transform="matrix(1 0 0 1 -97 -140 )">
    <path d="M 176 52.9627489845828  L 89.0761973895132 2.04248724992249  L 2 52.9627489845828  L 2 154.8034813444  L 89.0761973895132 205.723743079061  L 176 154.8034813444  L 176 52.9627489845828  Z M 88.505760239208 1.05534038926375  C 88.6821984225709 0.952914415360283  88.8791979060419 0.901666613325688  89.0761973895132 0.901666613325688  C 89.2731968729842 0.901666613325688  89.4703352841593 0.952914415360283  89.6466345398181 1.05534038926375  L 177.334327755535 51.975602123924  C 177.685675917522 52.1796185097411  177.901986351771 52.5557606654355  178 52.9627489845828  L 178 154.8034813444  C 177.901986351771 155.210469663548  177.685675917522 155.586611819242  177.334327755535 155.790628205059  L 89.6466345398181 206.710889939719  C 89.4703352841593 206.813315913623  89.2731968729842 206.864563715658  89.0761973895132 206.864563715658  C 88.8791979060419 206.864563715658  88.6821984225709 206.813315913623  88.505760239208 206.710889939719  L 0.818344878899485 155.790628205059  C 0.466996716911256 155.586611819242  0.250686282663289 155.210469663548  1 154.8034813444  L 1 52.9627489845828  C 0.250686282663289 52.5557606654355  0.466996716911256 52.1796185097411  0.818344878899485 51.975602123924  L 88.505760239208 1.05534038926375  Z " fill-rule="nonzero" fill="#389aff" stroke="none" transform="matrix(1 0 0 1 97 140 )" />
  </g>
</svg>