<?xml version="1.0" encoding="utf-8"?>
<svg version="1.1" xmlns:xlink="http://www.w3.org/1999/xlink" width="195px" height="10px" preserveAspectRatio="xMinYMid meet" viewBox="1045 472  195 8" xmlns="http://www.w3.org/2000/svg">
  <path d="M 1239 476.5  L 1055 476.5  A 5 5 0 0 0 1050.5 481.5 L 1050.5 602  A 5 5 0 0 0 1055.5 607.5 L 1063 607.5  " stroke-width="1" stroke="#fa2f6a" fill="none" />
  <path d="M 1237 473.5  A 3 3 0 0 0 1234 476.5 A 3 3 0 0 0 1237 479.5 A 3 3 0 0 0 1240 476.5 A 3 3 0 0 0 1237 473.5 Z M 1062 602  L 1062 613  L 1063 613  L 1063 602  L 1062 602  Z " fill-rule="nonzero" fill="#fa2f6a" stroke="none" />
</svg>