<?xml version="1.0" encoding="utf-8"?>
<svg version="1.1" xmlns:xlink="http://www.w3.org/1999/xlink" width="18px" height="18px" preserveAspectRatio="xMinYMid meet" viewBox="851 807  18 16" xmlns="http://www.w3.org/2000/svg">
  <path d="M 614 903.5  L 865 903.5  A 5 5 0 0 0 870.5 898.5 L 870.5 821  A 5 5 0 0 0 865.5 816.5 L 860 816.5  " stroke-width="1" stroke="#fa2f6a" fill="none" />
  <path d="M 616 900.5  A 3 3 0 0 0 613 903.5 A 3 3 0 0 0 616 906.5 A 3 3 0 0 0 619 903.5 A 3 3 0 0 0 616 900.5 Z M 861 822  L 861 811  L 860 811  L 860 822  L 861 822  Z " fill-rule="nonzero" fill="#fa2f6a" stroke="none" />
</svg>