<?xml version="1.0" encoding="utf-8"?>
<svg version="1.1" xmlns:xlink="http://www.w3.org/1999/xlink" width="30px" height="30px" xmlns="http://www.w3.org/2000/svg">
  <g transform="matrix(1 0 0 1 -52 -371 )">
    <path d="M 67 371  C 75.4 371  82 377.6  82 386  C 82 394.4  75.4 401  67 401  C 58.6 401  52 394.4  52 386  C 52 377.6  58.6 371  67 371  Z " fill-rule="nonzero" fill="#ffffff" stroke="none" />
    <path d="M 67 371.5  C 75.12 371.5  81.5 377.88  81.5 386  C 81.5 394.12  75.12 400.5  67 400.5  C 58.88 400.5  52.5 394.12  52.5 386  C 52.5 377.88  58.88 371.5  67 371.5  Z " stroke-width="1" stroke="#ffa94c" fill="none" />
  </g>
</svg>