<?xml version="1.0" encoding="utf-8"?>
<svg version="1.1" xmlns:xlink="http://www.w3.org/1999/xlink" width="30px" height="30px" xmlns="http://www.w3.org/2000/svg">
  <g transform="matrix(1 0 0 1 -52 -583 )">
    <path d="M 67 583  C 75.4 583  82 589.6  82 598  C 82 606.4  75.4 613  67 613  C 58.6 613  52 606.4  52 598  C 52 589.6  58.6 583  67 583  Z " fill-rule="nonzero" fill="#ffffff" stroke="none" />
    <path d="M 67 583.5  C 75.12 583.5  81.5 589.88  81.5 598  C 81.5 606.12  75.12 612.5  67 612.5  C 58.88 612.5  52.5 606.12  52.5 598  C 52.5 589.88  58.88 583.5  67 583.5  Z " stroke-width="1" stroke="#4bced0" fill="none" />
  </g>
</svg>