<?xml version="1.0" encoding="utf-8"?>
<svg version="1.1" xmlns:xlink="http://www.w3.org/1999/xlink" width="72px" height="25px" xmlns="http://www.w3.org/2000/svg">
  <g transform="matrix(1 0 0 1 -1312 -445 )">
    <path d="M 1313 450  A 4 4 0 0 1 1317 446 L 1379 446  A 4 4 0 0 1 1383 450 L 1383 465  A 4 4 0 0 1 1379 469 L 1317 469  A 4 4 0 0 1 1313 465 L 1313 450  Z " fill-rule="nonzero" fill="#e7f4ee" stroke="none" />
    <path d="M 1312.5 450  A 4.5 4.5 0 0 1 1317 445.5 L 1379 445.5  A 4.5 4.5 0 0 1 1383.5 450 L 1383.5 465  A 4.5 4.5 0 0 1 1379 469.5 L 1317 469.5  A 4.5 4.5 0 0 1 1312.5 465 L 1312.5 450  Z " stroke-width="1" stroke="#84dcb0" fill="none" stroke-opacity="0.996078431372549" />
  </g>
</svg>