<?xml version="1.0" encoding="utf-8"?>
<svg version="1.1" xmlns:xlink="http://www.w3.org/1999/xlink" width="10px" height="5px" preserveAspectRatio="xMinYMid meet" viewBox="1316 547  10 3" xmlns="http://www.w3.org/2000/svg">
  <path d="M 1331.5 488.5  A 5 5 0 0 0 1326.5 493.5 L 1326.5 543.5  A 2.5 2.5 0 0 1 1324 546.5 L 1321 546.5  " stroke-width="1" stroke="#fa2f6a" fill="none" />
  <path d="M 1329.55290828846 485.894695029986  A 3 3 0 0 0 1326.55290828846 488.894695029986 A 3 3 0 0 0 1329.55290828846 491.894695029986 A 3 3 0 0 0 1332.55290828846 488.894695029986 A 3 3 0 0 0 1329.55290828846 485.894695029986 Z M 1322 552  L 1322 541  L 1321 541  L 1321 552  L 1322 552  Z " fill-rule="nonzero" fill="#fa2f6a" stroke="none" />
</svg>