<?xml version="1.0" encoding="utf-8"?>
<svg version="1.1" xmlns:xlink="http://www.w3.org/1999/xlink" width="147px" height="167px" xmlns="http://www.w3.org/2000/svg">
  <g transform="matrix(1 0 0 1 -1178 -618 )">
    <path d="M 144 42.7603626719589  L 73.6919581036633 2.17456251314508  L 3 42.7603626719589  L 3 123.931870492241  L 73.6919581036633 164.517855645746  L 144 123.931870492241  L 144 42.7603626719589  Z M 72.9258315329064 0.863227649383642  C 73.162797130778 0.727164054505059  73.4273776172209 0.659086008393193  73.6919581036633 0.659086008393193  C 73.9565385901058 0.659086008393193  74.2211190765487 0.727164054505059  74.4580846744203 0.863227649383642  L 145.119360088924 41.4490278081976  C 145.591238826734 41.7200450298114  145.881754917983 42.21971568891  145 42.7603626719589  L 145 123.931870492241  C 145.881754917983 124.47251747529  145.591238826734 124.972188134389  145.119360088924 125.243205356003  L 74.4580846744203 165.829190509507  C 74.2211190765487 165.965254104386  73.9565385901058 166.033332150498  73.6919581036633 166.033332150498  C 73.4273776172209 166.033332150498  73.162797130778 165.965254104386  72.9258315329064 165.829190509507  L 2.26436953131785 125.243205356003  C 1.79249079350824 124.972188134389  1.5019747022597 124.47251747529  2 123.931870492241  L 2 42.7603626719589  C 1.5019747022597 42.21971568891  1.79249079350824 41.7200450298114  2.26436953131785 41.4490278081976  L 72.9258315329064 0.863227649383642  Z " fill-rule="nonzero" fill="#389aff" stroke="none" transform="matrix(1 0 0 1 1178 618 )" />
  </g>
</svg>