<?xml version="1.0" encoding="utf-8"?>
<svg version="1.1" xmlns:xlink="http://www.w3.org/1999/xlink" width="1042px" height="530px" xmlns="http://www.w3.org/2000/svg">
  <defs>
    <filter x="519px" y="405px" width="1042px" height="530px" filterUnits="userSpaceOnUse" id="filter441">
      <feOffset dx="0" dy="0" in="SourceAlpha" result="shadowOffsetInner" />
      <feGaussianBlur stdDeviation="2.5" in="shadowOffsetInner" result="shadowGaussian" />
      <feComposite in2="shadowGaussian" operator="atop" in="SourceAlpha" result="shadowComposite" />
      <feColorMatrix type="matrix" values="0 0 0 0 0  0 0 0 0 0  0 0 0 0 0  0 0 0 0.0470588235294118 0  " in="shadowComposite" />
    </filter>
    <g id="widget442">
      <path d="M 524.5 420  A 9.5 9.5 0 0 1 534 410.5 L 1546 410.5  A 9.5 9.5 0 0 1 1555.5 420 L 1555.5 920  A 9.5 9.5 0 0 1 1546 929.5 L 534 929.5  A 9.5 9.5 0 0 1 524.5 920 L 524.5 420  Z " fill-rule="nonzero" fill="#f2f2f2" stroke="none" fill-opacity="0.247058823529412" />
      <path d="M 524.5 420  A 9.5 9.5 0 0 1 534 410.5 L 1546 410.5  A 9.5 9.5 0 0 1 1555.5 420 L 1555.5 920  A 9.5 9.5 0 0 1 1546 929.5 L 534 929.5  A 9.5 9.5 0 0 1 524.5 920 L 524.5 420  Z " stroke-width="1" stroke="#e9e9e9" fill="none" />
    </g>
  </defs>
  <g transform="matrix(1 0 0 1 -519 -405 )">
    <use xlink:href="#widget442" filter="url(#filter441)" />
    <use xlink:href="#widget442" />
  </g>
</svg>