<?xml version="1.0" encoding="utf-8"?>
<svg version="1.1" xmlns:xlink="http://www.w3.org/1999/xlink" width="1042px" height="438px" xmlns="http://www.w3.org/2000/svg">
  <defs>
    <filter x="519px" y="1760px" width="1042px" height="438px" filterUnits="userSpaceOnUse" id="filter459">
      <feOffset dx="0" dy="0" in="SourceAlpha" result="shadowOffsetInner" />
      <feGaussianBlur stdDeviation="2.5" in="shadowOffsetInner" result="shadowGaussian" />
      <feComposite in2="shadowGaussian" operator="atop" in="SourceAlpha" result="shadowComposite" />
      <feColorMatrix type="matrix" values="0 0 0 0 0  0 0 0 0 0  0 0 0 0 0  0 0 0 0.0470588235294118 0  " in="shadowComposite" />
    </filter>
    <g id="widget460">
      <path d="M 524.5 1775  A 9.5 9.5 0 0 1 534 1765.5 L 1546 1765.5  A 9.5 9.5 0 0 1 1555.5 1775 L 1555.5 2183  A 9.5 9.5 0 0 1 1546 2192.5 L 534 2192.5  A 9.5 9.5 0 0 1 524.5 2183 L 524.5 1775  Z " fill-rule="nonzero" fill="#f2f2f2" stroke="none" fill-opacity="0.247058823529412" />
      <path d="M 524.5 1775  A 9.5 9.5 0 0 1 534 1765.5 L 1546 1765.5  A 9.5 9.5 0 0 1 1555.5 1775 L 1555.5 2183  A 9.5 9.5 0 0 1 1546 2192.5 L 534 2192.5  A 9.5 9.5 0 0 1 524.5 2183 L 524.5 1775  Z " stroke-width="1" stroke="#e9e9e9" fill="none" />
    </g>
  </defs>
  <g transform="matrix(1 0 0 1 -519 -1760 )">
    <use xlink:href="#widget460" filter="url(#filter459)" />
    <use xlink:href="#widget460" />
  </g>
</svg>