<?xml version="1.0" encoding="utf-8"?>
<svg version="1.1" xmlns:xlink="http://www.w3.org/1999/xlink" width="192px" height="222px" xmlns="http://www.w3.org/2000/svg">
  <g transform="matrix(1 0 0 1 -1154 -591 )">
    <path d="M 190 56.646381224606  L 96.1932535279408 2.44767315133096  L 3 56.646381224606  L 3 165.043982654165  L 96.1932535279408 219.242783368945  L 190 165.043982654165  L 190 56.646381224606  Z M 95.4308496324548 1.13429453706411  C 95.6666637939908 0.998018883429025  95.9299586609656 0.929834735858851  96.1932535279408 0.929834735858851  C 96.4565483949156 0.929834735858851  96.7198432618908 0.998018883429025  96.9556574234268 1.13429453706411  L 190.712954204439 55.3330026103391  C 191.182540042647 55.6044422195514  191.471644491082 56.1048916287542  191 56.646381224606  L 191 165.043982654165  C 191.471644491082 165.585472250017  191.182540042647 166.08592165922  190.712954204439 166.357361268432  L 96.9556574234268 220.556161983212  C 96.7198432618908 220.692437636847  96.4565483949156 220.760621784417  96.1932535279408 220.760621784417  C 95.9299586609656 220.760621784417  95.6666637939908 220.692437636847  95.4308496324548 220.556161983212  L 1.67336717100053 166.357361268432  C 1.20396701323417 166.08592165922  0.914862564800257 165.585472250017  1 165.043982654165  L 1 56.646381224606  C 0.914862564800257 56.1048916287542  1.20396701323417 55.6044422195514  1.67336717100053 55.3330026103391  L 95.4308496324548 1.13429453706411  Z " fill-rule="nonzero" fill="#389aff" stroke="none" transform="matrix(1 0 0 1 1154 591 )" />
  </g>
</svg>