<?xml version="1.0" encoding="utf-8"?>
<svg version="1.1" xmlns:xlink="http://www.w3.org/1999/xlink" width="98px" height="112px" xmlns="http://www.w3.org/2000/svg">
  <g transform="matrix(1 0 0 1 -1202 -646 )">
    <path d="M 96 28.8734339715656  L 49.18953247156 1.89930994442128  L 2 28.8734339715656  L 2 82.8214053870874  L 49.18953247156 109.795344988387  L 96 82.8214053870874  L 96 28.8734339715656  Z M 48.4234059008027 0.592007345170517  C 48.6601849115889 0.456362136487548  48.9249519851171 0.388493425684976  49.18953247156 0.388493425684976  C 49.4541129580025 0.388493425684976  49.7188800315293 0.456362136487548  49.9558456294009 0.592007345170517  L 97.0633003767095 27.5661313723148  C 97.5351791145181 27.8363152346133  97.8256952057677 28.3344494408031  97 28.8734339715656  L 97 82.8214053870874  C 97.8256952057677 83.3603899178498  97.5351791145181 83.8585241240397  97.0633003767095 84.1287079863381  L 49.9556590423169 111.102647587638  C 49.718693444445 111.238292796321  49.4541129580025 111.306161507123  49.18953247156 111.306161507123  C 48.9249519851171 111.306161507123  48.6601849115889 111.238292796321  48.4234059008027 111.102647587638  L 1.31613774057988 84.1287079863381  C 0.844259002770265 83.8585241240397  0.553742911521731 83.3603899178498  1 82.8214053870874  L 1 28.8734339715656  C 0.553742911521731 28.3344494408031  0.844259002770265 27.8363152346133  1.31613774057988 27.5661313723148  L 48.4234059008027 0.592007345170517  Z " fill-rule="nonzero" fill="#389aff" stroke="none" transform="matrix(1 0 0 1 1202 646 )" />
  </g>
</svg>