<?xml version="1.0" encoding="utf-8"?>
<svg version="1.1" xmlns:xlink="http://www.w3.org/1999/xlink" width="51px" height="59px" xmlns="http://www.w3.org/2000/svg">
  <g transform="matrix(1 0 0 1 -1224 -673 )">
    <path d="M 48 15.5085387877875  L 25.6834711117133 1.67308118721914  L 3 15.5085387877875  L 3 43.1798323739041  L 25.6834711117133 57.0153845707173  L 48 43.1798323739041  L 48 15.5085387877875  Z M 24.9329797770943 0.33199022191649  C 25.1651093423562 0.192839145527898  25.4242902270346 0.123216309211162  25.6834711117133 0.123216309211162  C 25.9426519963917 0.123216309211162  26.2018328810703 0.192839145527898  26.4339624463323 0.33199022191649  L 49.5074584542004 14.1674478224847  C 49.9697070136878 14.4446148203219  50.2542942051149 14.9556237357881  50 15.5085387877875  L 50 43.1798323739041  C 50.2542942051149 43.7327474259035  49.9697070136878 44.2437563413697  49.5074584542004 44.5209233392069  L 26.4339624463323 58.3564755360202  C 26.2018328810703 58.4956266124088  25.9426519963917 58.5652494487255  25.6834711117133 58.5652494487255  C 25.4242902270346 58.5652494487255  25.1649265631702 58.4956266124088  24.9329797770943 58.3564755360202  L 1.85984932759482 44.5209233392069  C 1.39778354729356 44.2437563413697  1.11319635586676 43.7327474259035  2 43.1798323739041  L 2 15.5085387877875  C 1.11319635586676 14.9556237357881  1.39778354729356 14.4446148203219  1.86003210678086 14.1674478224847  L 24.9329797770943 0.33199022191649  Z " fill-rule="nonzero" fill="#389aff" stroke="none" transform="matrix(1 0 0 1 1224 673 )" />
  </g>
</svg>