<?xml version="1.0" encoding="utf-8"?>
<svg version="1.1" xmlns:xlink="http://www.w3.org/1999/xlink" width="1042px" height="350px" xmlns="http://www.w3.org/2000/svg">
  <defs>
    <filter x="519px" y="1178px" width="1042px" height="350px" filterUnits="userSpaceOnUse" id="filter678">
      <feOffset dx="0" dy="0" in="SourceAlpha" result="shadowOffsetInner" />
      <feGaussianBlur stdDeviation="2.5" in="shadowOffsetInner" result="shadowGaussian" />
      <feComposite in2="shadowGaussian" operator="atop" in="SourceAlpha" result="shadowComposite" />
      <feColorMatrix type="matrix" values="0 0 0 0 0  0 0 0 0 0  0 0 0 0 0  0 0 0 0.0470588235294118 0  " in="shadowComposite" />
    </filter>
    <g id="widget679">
      <path d="M 524.5 1188  A 4.5 4.5 0 0 1 529 1183.5 L 1551 1183.5  A 4.5 4.5 0 0 1 1555.5 1188 L 1555.5 1518  A 4.5 4.5 0 0 1 1551 1522.5 L 529 1522.5  A 4.5 4.5 0 0 1 524.5 1518 L 524.5 1188  Z " fill-rule="nonzero" fill="#f2f2f2" stroke="none" fill-opacity="0.247058823529412" />
      <path d="M 524.5 1188  A 4.5 4.5 0 0 1 529 1183.5 L 1551 1183.5  A 4.5 4.5 0 0 1 1555.5 1188 L 1555.5 1518  A 4.5 4.5 0 0 1 1551 1522.5 L 529 1522.5  A 4.5 4.5 0 0 1 524.5 1518 L 524.5 1188  Z " stroke-width="1" stroke="#e9e9e9" fill="none" />
    </g>
  </defs>
  <g transform="matrix(1 0 0 1 -519 -1178 )">
    <use xlink:href="#widget679" filter="url(#filter678)" />
    <use xlink:href="#widget679" />
  </g>
</svg>