<?xml version="1.0" encoding="utf-8"?>
<svg version="1.1" xmlns:xlink="http://www.w3.org/1999/xlink" width="300px" height="123px" xmlns="http://www.w3.org/2000/svg">
  <defs>
    <filter x="659px" y="1460px" width="300px" height="123px" filterUnits="userSpaceOnUse" id="filter684">
      <feOffset dx="0" dy="0" in="SourceAlpha" result="shadowOffsetInner" />
      <feGaussianBlur stdDeviation="2.5" in="shadowOffsetInner" result="shadowGaussian" />
      <feComposite in2="shadowGaussian" operator="atop" in="SourceAlpha" result="shadowComposite" />
      <feColorMatrix type="matrix" values="0 0 0 0 0  0 0 0 0 0  0 0 0 0 0  0 0 0 0.349019607843137 0  " in="shadowComposite" />
    </filter>
    <g id="widget685">
      <path d="M 664 1558.4375  C 664 1558.4375  664 1470  664 1470  C 664 1467.23857625085  666.238576250846 1465  669 1465  C 669 1465  949 1465  949 1465  C 951.761423749154 1465  954 1467.23857625085  954 1470  C 954 1470  954 1558.4375  954 1558.4375  C 954 1561.19892374915  951.761423749154 1563.4375  949 1563.4375  C 949 1563.4375  753.910211267606 1563.4375  753.910211267606 1563.4375  C 753.910211267606 1563.4375  740.766169154229 1577.5671641791  740.766169154229 1577.5671641791  C 740.766169154229 1577.5671641791  726.680164319249 1563.4375  726.680164319249 1563.4375  C 726.680164319249 1563.4375  669 1563.4375  669 1563.4375  C 666.238576250846 1563.4375  664 1561.19892374915  664 1558.4375  Z " fill-rule="nonzero" fill="#ffffff" stroke="none" fill-opacity="0.996078431372549" />
    </g>
  </defs>
  <g transform="matrix(1 0 0 1 -659 -1460 )">
    <use xlink:href="#widget685" filter="url(#filter684)" />
    <use xlink:href="#widget685" />
  </g>
</svg>