<?xml version="1.0" encoding="utf-8"?>
<svg version="1.1" xmlns:xlink="http://www.w3.org/1999/xlink" width="257px" height="218px" xmlns="http://www.w3.org/2000/svg">
  <g transform="matrix(1 0 0 1 -1451 -200 )">
    <path d="M 1451 389.554285714286  C 1451 389.554285714286  1451 205  1451 205  C 1451 202.238576250846  1453.23857625085 200  1456 200  C 1456 200  1703 200  1703 200  C 1705.76142374915 200  1708 202.238576250846  1708 205  C 1708 205  1708 389.554285714286  1708 389.554285714286  C 1708 392.31570946344  1705.76142374915 394.554285714286  1703 394.554285714286  C 1703 394.554285714286  1555.5 394.554285714286  1555.5 394.554285714286  C 1555.5 394.554285714286  1532.92857142857 417.857142857143  1532.92857142857 417.857142857143  C 1532.92857142857 417.857142857143  1506.7380952381 394.554285714286  1506.7380952381 394.554285714286  C 1506.7380952381 394.554285714286  1456 394.554285714286  1456 394.554285714286  C 1453.23857625085 394.554285714286  1451 392.31570946344  1451 389.554285714286  Z " fill-rule="nonzero" fill="#000000" stroke="none" fill-opacity="0.8" />
  </g>
</svg>