<?xml version="1.0" encoding="utf-8"?>
<svg version="1.1" xmlns:xlink="http://www.w3.org/1999/xlink" width="267px" height="453px" xmlns="http://www.w3.org/2000/svg">
  <defs>
    <filter x="670px" y="1799px" width="267px" height="453px" filterUnits="userSpaceOnUse" id="filter360">
      <feOffset dx="0" dy="0" in="SourceAlpha" result="shadowOffsetInner" />
      <feGaussianBlur stdDeviation="2.5" in="shadowOffsetInner" result="shadowGaussian" />
      <feComposite in2="shadowGaussian" operator="atop" in="SourceAlpha" result="shadowComposite" />
      <feColorMatrix type="matrix" values="0 0 0 0 0  0 0 0 0 0  0 0 0 0 0  0 0 0 0.349019607843137 0  " in="shadowComposite" />
    </filter>
    <g id="widget361">
      <path d="M 675 2220.98267045455  C 675 2220.98267045455  675 1809  675 1809  C 675 1806.23857625085  677.238576250846 1804  680 1804  C 680 1804  927 1804  927 1804  C 929.761423749154 1804  932 1806.23857625085  932 1809  C 932 1809  932 2220.98267045455  932 2220.98267045455  C 932 2223.7440942037  929.761423749154 2225.98267045455  927 2225.98267045455  C 927 2225.98267045455  754.679049295775 2225.98267045455  754.679049295775 2225.98267045455  C 754.679049295775 2225.98267045455  742.777777777778 2246.75140291807  742.777777777778 2246.75140291807  C 742.777777777778 2246.75140291807  730.547593896714 2225.98267045455  730.547593896714 2225.98267045455  C 730.547593896714 2225.98267045455  680 2225.98267045455  680 2225.98267045455  C 677.238576250846 2225.98267045455  675 2223.7440942037  675 2220.98267045455  Z " fill-rule="nonzero" fill="#ffffff" stroke="none" fill-opacity="0.925490196078431" />
    </g>
  </defs>
  <g transform="matrix(1 0 0 1 -670 -1799 )">
    <use xlink:href="#widget361" filter="url(#filter360)" />
    <use xlink:href="#widget361" />
  </g>
</svg>