<?xml version="1.0" encoding="utf-8"?>
<svg version="1.1" xmlns:xlink="http://www.w3.org/1999/xlink" width="307px" height="206px" xmlns="http://www.w3.org/2000/svg">
  <defs>
    <filter x="645px" y="1235px" width="307px" height="206px" filterUnits="userSpaceOnUse" id="filter457">
      <feOffset dx="0" dy="0" in="SourceAlpha" result="shadowOffsetInner" />
      <feGaussianBlur stdDeviation="2.5" in="shadowOffsetInner" result="shadowGaussian" />
      <feComposite in2="shadowGaussian" operator="atop" in="SourceAlpha" result="shadowComposite" />
      <feColorMatrix type="matrix" values="0 0 0 0 0  0 0 0 0 0  0 0 0 0 0  0 0 0 0.349019607843137 0  " in="shadowComposite" />
    </filter>
    <g id="widget458">
      <path d="M 650 1410.6125  C 650 1410.6125  650 1245  650 1245  C 650 1242.23857625085  652.238576250846 1240  655 1240  C 655 1240  942 1240  942 1240  C 944.761423749154 1240  947 1242.23857625085  947 1245  C 947 1245  947 1410.6125  947 1410.6125  C 947 1413.37392374915  944.761423749154 1415.6125  942 1415.6125  C 942 1415.6125  742.080457746479 1415.6125  742.080457746479 1415.6125  C 742.080457746479 1415.6125  729.461538461538 1435.18681318681  729.461538461538 1435.18681318681  C 729.461538461538 1435.18681318681  714.193133802817 1415.6125  714.193133802817 1415.6125  C 714.193133802817 1415.6125  655 1415.6125  655 1415.6125  C 652.238576250846 1415.6125  650 1413.37392374915  650 1410.6125  Z " fill-rule="nonzero" fill="#ffffff" stroke="none" fill-opacity="0.996078431372549" />
    </g>
  </defs>
  <g transform="matrix(1 0 0 1 -645 -1235 )">
    <use xlink:href="#widget458" filter="url(#filter457)" />
    <use xlink:href="#widget458" />
  </g>
</svg>